<?xml version="1.0" standalone="no"?>
<!DOCTYPE svg PUBLIC "-//W3C//DTD SVG 20010904//EN"
 "http://www.w3.org/TR/2001/REC-SVG-20010904/DTD/svg10.dtd">
<svg version="1.0" xmlns="http://www.w3.org/2000/svg"
 width="360.000000pt" height="360.000000pt" viewBox="0 0 360.000000 360.000000"
 preserveAspectRatio="xMidYMid meet">
<g transform="translate(0.000000,360.000000) scale(0.100000,-0.100000)"
fill="#000000" stroke="none">
<path d="M1296 3593 c-4 -4 -28 -6 -54 -4 -26 1 -45 1 -42 -2 11 -11 91 -10
102 1 7 7 10 12 7 12 -3 0 -9 -3 -13 -7z"/>
<path d="M1326 3585 c-11 -8 -15 -15 -9 -15 6 0 16 7 23 15 16 19 11 19 -14 0z"/>
<path d="M1370 3590 c-8 -5 -12 -11 -9 -14 2 -3 11 -1 19 4 8 5 12 11 9 14 -2
3 -11 1 -19 -4z"/>
<path d="M1 3586 c2 -2 26 -6 53 -9 30 -3 43 -1 35 4 -13 8 -97 13 -88 5z"/>
<path d="M168 3583 c6 -2 18 -2 25 0 6 3 1 5 -13 5 -14 0 -19 -2 -12 -5z"/>
<path d="M220 3586 c0 -2 7 -7 16 -10 8 -3 12 -2 9 4 -6 10 -25 14 -25 6z"/>
<path d="M405 3585 c23 -8 83 -10 79 -3 -3 4 -24 8 -47 7 -23 0 -37 -2 -32 -4z"/>
<path d="M578 3583 c12 -2 32 -2 45 0 12 2 2 4 -23 4 -25 0 -35 -2 -22 -4z"/>
<path d="M968 3583 c7 -3 16 -2 19 1 4 3 -2 6 -13 5 -11 0 -14 -3 -6 -6z"/>
<path d="M1028 3583 c18 -2 45 -2 60 0 15 2 0 4 -33 4 -33 0 -45 -2 -27 -4z"/>
<path d="M1453 3583 c9 -2 23 -2 30 0 6 3 -1 5 -18 5 -16 0 -22 -2 -12 -5z"/>
<path d="M1698 3583 c12 -2 32 -2 45 0 12 2 2 4 -23 4 -25 0 -35 -2 -22 -4z"/>
<path d="M2481 3586 c8 -8 88 -10 95 -3 4 4 -17 7 -46 7 -29 0 -51 -2 -49 -4z"/>
<path d="M2590 3586 c0 -2 13 -6 29 -8 17 -2 28 -1 25 4 -5 8 -54 12 -54 4z"/>
<path d="M2986 3569 c-17 -17 -18 -19 -3 -19 9 0 17 5 17 10 0 6 10 15 23 20
20 8 20 9 2 9 -11 0 -29 -9 -39 -20z"/>
<path d="M3298 3583 c12 -2 30 -2 40 0 9 3 -1 5 -23 4 -22 0 -30 -2 -17 -4z"/>
<path d="M3390 3580 c-8 -5 -10 -10 -5 -10 6 0 17 5 25 10 8 5 11 10 5 10 -5
0 -17 -5 -25 -10z"/>
<path d="M3538 3583 c12 -2 32 -2 45 0 12 2 2 4 -23 4 -25 0 -35 -2 -22 -4z"/>
<path d="M195 3554 c-9 -9 -14 -18 -11 -21 2 -3 14 5 25 16 12 12 17 21 12 21
-5 0 -17 -7 -26 -16z"/>
<path d="M2603 3540 c-11 -16 -10 -18 1 -14 15 6 30 34 18 34 -4 0 -13 -9 -19
-20z"/>
<path d="M3010 3536 c0 -2 7 -7 16 -10 8 -3 12 -2 9 4 -6 10 -25 14 -25 6z"/>
<path d="M1305 3520 c-3 -6 1 -7 9 -4 18 7 21 14 7 14 -6 0 -13 -4 -16 -10z"/>
<path d="M1400 3520 c-8 -5 -10 -10 -5 -10 6 0 17 5 25 10 8 5 11 10 5 10 -5
0 -17 -5 -25 -10z"/>
<path d="M133 3492 c-31 -37 -29 -50 2 -16 14 15 25 31 25 35 0 13 -3 11 -27
-19z"/>
<path d="M1205 3509 c-11 -16 -1 -19 13 -3 7 8 8 14 3 14 -5 0 -13 -5 -16 -11z"/>
<path d="M2530 3509 c0 -5 5 -7 10 -4 6 3 10 8 10 11 0 2 -4 4 -10 4 -5 0 -10
-5 -10 -11z"/>
<path d="M2912 3493 c-13 -14 -21 -28 -18 -31 3 -3 7 -3 9 -1 1 2 13 16 26 32
30 34 15 34 -17 0z"/>
<path d="M1255 3470 c-16 -16 -24 -30 -19 -30 9 0 32 23 48 48 12 20 1 13 -29
-18z"/>
<path d="M1375 3490 c-3 -5 -1 -10 4 -10 6 0 11 5 11 10 0 6 -2 10 -4 10 -3 0
-8 -4 -11 -10z"/>
<path d="M1315 3480 c-3 -5 -1 -10 4 -10 6 0 11 5 11 10 0 6 -2 10 -4 10 -3 0
-8 -4 -11 -10z"/>
<path d="M2530 3465 c-13 -14 -20 -25 -15 -25 7 0 45 39 45 47 0 7 -8 2 -30
-22z"/>
<path d="M142 3454 c-7 -8 -8 -14 -3 -14 10 0 25 19 20 25 -2 1 -10 -3 -17
-11z"/>
<path d="M1334 3449 c-19 -22 -19 -22 4 -10 12 6 22 16 22 21 0 15 -5 12 -26
-11z"/>
<path d="M2860 3440 c-9 -6 -10 -10 -3 -10 6 0 15 5 18 10 8 12 4 12 -15 0z"/>
<path d="M2890 3430 c-11 -11 -20 -26 -19 -32 0 -7 5 -3 11 8 5 12 20 27 32
32 11 6 15 11 9 11 -7 1 -22 -8 -33 -19z"/>
<path d="M2934 3428 c-19 -23 -19 -23 2 -5 11 9 24 14 29 10 4 -5 5 -2 1 5 -9
16 -10 16 -32 -10z"/>
<path d="M3160 3429 c-7 -11 -9 -23 -6 -27 3 -3 6 0 6 6 0 6 7 18 16 26 8 9
11 16 5 16 -6 0 -15 -9 -21 -21z"/>
<path d="M2805 3429 c-4 -6 -5 -12 -2 -15 2 -3 7 2 10 11 7 17 1 20 -8 4z"/>
<path d="M1297 3413 c-4 -3 -7 -11 -7 -17 0 -6 5 -5 12 2 6 6 9 14 7 17 -3 3
-9 2 -12 -2z"/>
<path d="M2820 3395 c-13 -14 -22 -27 -19 -29 2 -2 14 10 27 25 29 36 24 38
-8 4z"/>
<path d="M25 3380 c-16 -16 -26 -30 -23 -30 3 0 19 14 36 30 18 17 28 30 24
30 -5 0 -21 -13 -37 -30z"/>
<path d="M1397 3403 c-4 -3 -7 -11 -7 -17 0 -6 5 -5 12 2 6 6 9 14 7 17 -3 3
-9 2 -12 -2z"/>
<path d="M195 3360 c-3 -6 1 -7 9 -4 18 7 21 14 7 14 -6 0 -13 -4 -16 -10z"/>
<path d="M2315 3349 c-4 -6 -5 -12 -2 -15 2 -3 7 2 10 11 7 17 1 20 -8 4z"/>
<path d="M2766 3344 c-5 -14 -4 -15 9 -4 17 14 19 20 6 20 -5 0 -12 -7 -15
-16z"/>
<path d="M2945 3340 c-3 -5 -1 -10 4 -10 6 0 11 5 11 10 0 6 -2 10 -4 10 -3 0
-8 -4 -11 -10z"/>
<path d="M2730 3305 c-11 -13 -10 -14 4 -9 9 3 16 10 16 15 0 13 -6 11 -20 -6z"/>
<path d="M1520 3260 c0 -5 5 -10 11 -10 5 0 7 5 4 10 -3 6 -8 10 -11 10 -2 0
-4 -4 -4 -10z"/>
<path d="M2835 3239 c-4 -6 -5 -12 -2 -15 2 -3 7 2 10 11 7 17 1 20 -8 4z"/>
<path d="M3001 3184 c-18 -14 -36 -36 -42 -48 -11 -21 -11 -21 8 -1 11 11 32
32 48 48 35 34 26 35 -14 1z"/>
<path d="M1395 3180 c-3 -5 -1 -10 4 -10 6 0 11 5 11 10 0 6 -2 10 -4 10 -3 0
-8 -4 -11 -10z"/>
<path d="M2767 3183 c-4 -3 -7 -11 -7 -17 0 -6 5 -5 12 2 6 6 9 14 7 17 -3 3
-9 2 -12 -2z"/>
<path d="M1399 3133 c-13 -15 -12 -15 9 -4 23 12 28 21 13 21 -5 0 -15 -7 -22
-17z"/>
<path d="M880 3119 c0 -5 5 -7 10 -4 6 3 10 8 10 11 0 2 -4 4 -10 4 -5 0 -10
-5 -10 -11z"/>
<path d="M1200 3040 c-8 -5 -10 -10 -5 -10 6 0 17 5 25 10 8 5 11 10 5 10 -5
0 -17 -5 -25 -10z"/>
<path d="M2810 3040 c-9 -6 -10 -10 -3 -10 6 0 15 5 18 10 8 12 4 12 -15 0z"/>
<path d="M1161 2998 c-14 -23 -14 -23 8 -4 22 20 25 26 13 26 -4 0 -13 -10
-21 -22z"/>
<path d="M1217 3013 c-4 -3 -7 -11 -7 -17 0 -6 5 -5 12 2 6 6 9 14 7 17 -3 3
-9 2 -12 -2z"/>
<path d="M1255 3000 c-3 -5 -1 -10 4 -10 6 0 11 5 11 10 0 6 -2 10 -4 10 -3 0
-8 -4 -11 -10z"/>
<path d="M1183 2975 c-10 -11 -9 -13 6 -12 11 1 17 7 14 14 -6 16 -5 16 -20
-2z"/>
<path d="M2797 2949 c4 -13 8 -18 11 -10 2 7 -1 18 -6 23 -8 8 -9 4 -5 -13z"/>
<path d="M2900 2945 c-7 -8 -8 -15 -2 -15 5 0 15 7 22 15 7 8 8 15 2 15 -5 0
-15 -7 -22 -15z"/>
<path d="M3453 2938 c-22 -29 -24 -41 -3 -20 12 13 20 25 17 28 -2 2 -9 -1
-14 -8z"/>
<path d="M2919 2913 c-13 -16 -12 -17 4 -4 16 13 21 21 13 21 -2 0 -10 -8 -17
-17z"/>
<path d="M3520 2921 c0 -18 -32 -42 -50 -36 -10 3 -23 -2 -31 -12 -13 -16 -12
-17 2 -5 9 7 23 10 32 6 9 -3 24 3 36 15 19 19 28 41 16 41 -3 0 -5 -4 -5 -9z"/>
<path d="M2511 2854 c-12 -14 -21 -28 -18 -30 2 -2 16 9 30 26 15 16 23 30 19
30 -5 0 -19 -12 -31 -26z"/>
<path d="M2636 2863 c-6 -14 -5 -15 5 -6 7 7 10 15 7 18 -3 3 -9 -2 -12 -12z"/>
<path d="M3370 2855 c-13 -14 -21 -27 -18 -30 2 -3 17 9 33 25 16 17 24 30 19
30 -6 0 -21 -11 -34 -25z"/>
<path d="M2871 2854 c0 -11 3 -14 6 -6 3 7 2 16 -1 19 -3 4 -6 -2 -5 -13z"/>
<path d="M3437 2830 c-15 -16 -23 -30 -18 -30 5 0 19 14 31 30 12 17 20 30 17
30 -2 0 -16 -13 -30 -30z"/>
<path d="M2605 2830 c-3 -5 -1 -10 4 -10 6 0 11 5 11 10 0 6 -2 10 -4 10 -3 0
-8 -4 -11 -10z"/>
<path d="M1695 2800 c-33 -5 -68 -6 -79 -3 -10 3 -16 1 -13 -3 7 -13 -58 -16
-88 -4 -17 7 -24 7 -20 0 3 -6 14 -10 23 -11 26 -1 -99 -39 -131 -39 -19 0
-26 -4 -21 -12 4 -7 3 -8 -5 -4 -6 4 -19 2 -27 -5 -11 -9 -20 -9 -40 0 -18 8
-23 8 -18 0 4 -8 -1 -9 -17 -4 -18 5 -21 4 -9 -4 8 -6 24 -8 35 -5 11 4 18 4
15 1 -7 -7 -141 -58 -157 -59 -7 -1 -15 -8 -18 -16 -4 -10 -13 -12 -33 -8 -17
4 -22 3 -14 -2 10 -7 3 -14 -26 -25 -22 -9 -43 -21 -46 -26 -4 -6 -14 -7 -23
-4 -11 4 -14 3 -9 -6 5 -8 3 -12 -5 -10 -8 1 -21 1 -29 0 -12 -1 -12 -3 -2 -9
9 -6 5 -12 -15 -22 -16 -8 -39 -22 -53 -31 -14 -9 -37 -15 -53 -14 -15 2 -25
-1 -22 -5 3 -5 13 -6 22 -3 12 5 12 2 -3 -15 -10 -12 -23 -22 -29 -22 -6 0
-21 -9 -33 -21 -12 -11 -27 -17 -32 -14 -6 4 -9 1 -8 -6 2 -6 -3 -14 -11 -17
-10 -3 -12 0 -7 13 5 15 4 16 -9 5 -11 -9 -12 -15 -5 -20 7 -5 6 -11 -5 -20
-14 -12 -18 -11 -27 1 -8 11 -9 11 -4 -3 5 -18 -61 -85 -73 -72 -3 4 0 9 7 11
16 6 15 20 -2 26 -10 4 -12 -4 -10 -29 1 -19 -1 -34 -4 -34 -4 0 -32 -24 -62
-52 -47 -46 -55 -57 -55 -91 0 -60 59 -78 108 -33 14 13 28 22 31 20 3 -2 4
-1 1 3 -8 10 57 73 68 66 6 -3 7 -1 4 4 -11 18 25 25 42 9 15 -14 17 -13 17 3
0 11 -6 17 -13 14 -21 -8 -15 6 13 32 21 19 30 22 45 14 21 -11 43 -3 33 12
-3 5 -15 7 -27 3 -20 -6 -20 -5 -8 10 8 9 20 15 28 12 8 -3 12 -2 9 3 -3 4 6
14 19 21 14 7 25 17 25 22 0 5 11 6 25 4 17 -3 23 -1 19 6 -5 8 -1 9 12 4 15
-6 16 -5 7 5 -10 10 -15 9 -28 -1 -8 -7 -15 -10 -15 -7 0 11 87 66 94 60 3 -4
6 -1 6 6 0 8 8 10 23 7 12 -3 16 -3 8 0 -9 4 2 16 33 35 49 31 56 33 56 21 0
-4 -16 -16 -35 -26 -19 -11 -33 -21 -31 -24 3 -2 21 6 41 18 24 15 34 28 30
37 -4 11 -1 13 10 9 11 -4 14 -2 9 6 -5 8 -2 9 10 5 11 -5 15 -3 10 5 -5 8 2
9 22 4 17 -4 24 -3 16 2 -8 6 3 15 36 30 27 12 53 22 59 22 6 0 13 4 15 8 3 8
110 47 210 77 31 10 68 15 82 11 28 -7 58 2 50 15 -8 14 40 11 55 -3 11 -11
13 -10 9 2 -5 13 6 16 61 19 117 7 189 6 185 -1 -3 -4 30 -7 73 -7 43 0 107
-7 143 -16 36 -9 81 -20 100 -25 19 -5 40 -17 48 -27 8 -12 15 -14 20 -7 8 12
97 -26 283 -121 10 -5 19 -15 19 -22 0 -7 7 -10 17 -6 11 4 14 3 9 -6 -4 -6
-4 -11 1 -10 16 5 63 -25 69 -43 3 -10 9 -16 14 -13 12 7 220 -165 220 -182 0
-3 -9 2 -20 12 -11 10 -20 13 -20 7 0 -13 30 -31 45 -27 13 4 88 -82 88 -100
0 -8 3 -12 7 -10 4 2 16 -2 26 -10 27 -20 57 -18 88 6 23 18 29 19 43 7 15
-12 15 -11 3 9 -8 12 -17 20 -21 17 -4 -2 -10 8 -13 22 -4 14 -18 37 -32 51
-13 13 -22 28 -19 34 4 5 -2 6 -11 2 -14 -5 -16 -3 -11 11 4 9 3 15 -2 11 -14
-8 -59 41 -57 62 0 12 -5 17 -17 17 -27 -3 -68 39 -56 57 5 7 9 19 8 24 0 6
-5 0 -12 -12 l-12 -22 -30 27 c-49 45 -199 154 -217 160 -10 2 -18 8 -18 12 0
4 -62 39 -138 77 -155 78 -157 81 -88 141 20 18 32 32 27 32 -12 0 -73 -58
-87 -82 -8 -15 -13 -15 -68 3 -32 11 -71 29 -86 41 -23 17 -37 19 -77 14 -31
-4 -41 -3 -28 3 15 7 7 9 -30 9 -27 -1 -117 2 -200 5 -82 3 -177 2 -210 -3z
m315 -20 c183 -22 337 -68 500 -149 101 -51 149 -79 250 -148 67 -46 195 -157
288 -248 78 -78 102 -108 102 -128 0 -20 -6 -28 -25 -33 -23 -6 -41 8 -148
113 -184 180 -302 268 -483 360 -322 165 -680 201 -1033 103 -295 -82 -616
-270 -879 -515 -60 -56 -76 -66 -97 -61 -45 11 -32 45 47 122 419 409 1007
641 1478 584z m220 -10 c11 -7 5 -8 -20 -4 -43 8 -51 14 -19 14 13 0 31 -5 39
-10z m-633 -116 c-3 -3 -12 -4 -19 -1 -8 3 -5 6 6 6 11 1 17 -2 13 -5z m1433
-354 c0 -5 -4 -10 -10 -10 -5 0 -10 5 -10 10 0 6 5 10 10 10 6 0 10 -4 10 -10z"/>
<path d="M2198 2703 c7 -3 16 -2 19 1 4 3 -2 6 -13 5 -11 0 -14 -3 -6 -6z"/>
<path d="M2820 2366 c0 -2 8 -10 18 -17 15 -13 16 -12 3 4 -13 16 -21 21 -21
13z"/>
<path d="M740 2310 c-9 -6 -10 -10 -3 -10 6 0 15 5 18 10 8 12 4 12 -15 0z"/>
<path d="M2571 2792 c-17 -31 -13 -40 5 -14 9 13 14 26 11 29 -3 2 -10 -4 -16
-15z"/>
<path d="M3306 2794 c-24 -23 -19 -27 9 -8 14 9 25 18 25 20 0 10 -20 3 -34
-12z"/>
<path d="M3445 2800 c-3 -6 1 -7 9 -4 18 7 21 14 7 14 -6 0 -13 -4 -16 -10z"/>
<path d="M3061 2784 c0 -11 3 -14 6 -6 3 7 2 16 -1 19 -3 4 -6 -2 -5 -13z"/>
<path d="M3205 2789 c-11 -16 -1 -19 13 -3 7 8 8 14 3 14 -5 0 -13 -5 -16 -11z"/>
<path d="M3331 2766 l-24 -31 28 27 c16 15 27 29 24 31 -2 3 -15 -10 -28 -27z"/>
<path d="M1374 2766 c-10 -10 -5 -13 25 -13 26 0 29 1 11 5 l-25 5 25 8 25 7
-25 1 c-14 0 -30 -6 -36 -13z"/>
<path d="M1450 2770 c-18 -12 -2 -12 25 0 13 6 15 9 5 9 -8 0 -22 -4 -30 -9z"/>
<path d="M2265 2770 c3 -5 8 -10 11 -10 2 0 4 5 4 10 0 6 -5 10 -11 10 -5 0
-7 -4 -4 -10z"/>
<path d="M3229 2763 c-13 -16 -12 -17 4 -4 9 7 17 15 17 17 0 8 -8 3 -21 -13z"/>
<path d="M3241 2733 c-17 -20 -29 -39 -26 -41 4 -5 64 60 65 71 0 14 -9 7 -39
-30z"/>
<path d="M2474 2717 c5 -14 1 -16 -22 -11 -17 4 -8 -3 23 -20 27 -14 51 -24
53 -21 2 2 -9 10 -25 19 -24 13 -25 15 -8 16 15 1 16 3 5 7 -8 3 -19 11 -23
17 -6 7 -7 4 -3 -7z"/>
<path d="M3070 2690 c-35 -35 -47 -50 -37 -50 2 0 23 20 47 45 54 55 46 60
-10 5z"/>
<path d="M3280 2720 c-9 -6 -10 -10 -3 -10 6 0 15 5 18 10 8 12 4 12 -15 0z"/>
<path d="M565 2710 c-3 -6 1 -7 9 -4 18 7 21 14 7 14 -6 0 -13 -4 -16 -10z"/>
<path d="M554 2654 c-36 -36 -63 -68 -60 -72 3 -3 7 -3 9 -1 1 3 31 35 67 72
83 86 71 87 -16 1z"/>
<path d="M1210 2701 c12 -9 13 -11 1 -11 -8 0 -12 -2 -9 -5 3 -3 16 -1 29 4
13 5 19 10 12 10 -6 1 -20 4 -30 7 -15 5 -15 4 -3 -5z"/>
<path d="M2530 2692 c0 -12 19 -26 26 -19 2 2 -2 10 -11 17 -9 8 -15 8 -15 2z"/>
<path d="M3255 2690 c-3 -5 -1 -10 4 -10 6 0 11 5 11 10 0 6 -2 10 -4 10 -3 0
-8 -4 -11 -10z"/>
<path d="M1825 2670 c3 -6 20 -10 37 -10 38 0 34 5 -10 13 -21 4 -31 3 -27 -3z"/>
<path d="M3267 2659 c-11 -13 -25 -18 -37 -14 -10 3 -21 2 -24 -3 -9 -16 55
-6 71 11 9 9 15 19 12 21 -3 3 -13 -4 -22 -15z"/>
<path d="M602 2655 c-7 -8 -9 -15 -4 -15 5 0 15 7 22 15 16 19 -1 19 -18 0z"/>
<path d="M1738 2663 c7 -3 16 -2 19 1 4 3 -2 6 -13 5 -11 0 -14 -3 -6 -6z"/>
<path d="M2023 2653 c15 -2 39 -2 55 0 15 2 2 4 -28 4 -30 0 -43 -2 -27 -4z"/>
<path d="M2118 2643 c7 -3 16 -2 19 1 4 3 -2 6 -13 5 -11 0 -14 -3 -6 -6z"/>
<path d="M3144 2636 c-10 -8 -16 -17 -13 -20 3 -3 14 3 24 14 21 23 17 26 -11
6z"/>
<path d="M2635 2630 c6 -9 2 -10 -16 -5 -13 4 -22 6 -19 3 34 -27 38 -28 43
-14 4 9 1 18 -5 22 -7 5 -8 2 -3 -6z"/>
<path d="M1030 2610 c0 -5 7 -7 15 -4 8 4 15 8 15 10 0 2 -7 4 -15 4 -8 0 -15
-4 -15 -10z"/>
<path d="M2240 2610 c0 -5 5 -10 11 -10 5 0 7 5 4 10 -3 6 -8 10 -11 10 -2 0
-4 -4 -4 -10z"/>
<path d="M3170 2607 c-28 -23 -55 -58 -39 -52 8 4 24 20 37 36 25 31 26 36 2
16z"/>
<path d="M3210 2609 c0 -5 5 -7 10 -4 6 3 10 8 10 11 0 2 -4 4 -10 4 -5 0 -10
-5 -10 -11z"/>
<path d="M3257 2613 c-4 -3 -7 -11 -7 -17 0 -6 5 -5 12 2 6 6 9 14 7 17 -3 3
-9 2 -12 -2z"/>
<path d="M1375 2589 c-22 -10 -29 -16 -15 -13 38 10 87 32 70 32 -8 0 -33 -8
-55 -19z"/>
<path d="M2260 2577 c0 -4 17 -7 38 -7 20 1 48 -1 62 -4 l25 -7 -25 12 c-30
13 -100 17 -100 6z"/>
<path d="M3549 2573 c-13 -17 -13 -17 6 -3 11 8 22 16 24 17 2 2 0 3 -6 3 -6
0 -17 -8 -24 -17z"/>
<path d="M1395 2570 c-8 -13 5 -13 25 0 13 8 13 10 -2 10 -9 0 -20 -4 -23 -10z"/>
<path d="M1308 2563 c7 -3 16 -2 19 1 4 3 -2 6 -13 5 -11 0 -14 -3 -6 -6z"/>
<path d="M2712 2553 c14 -13 21 -14 40 -5 22 11 22 11 -4 6 -17 -4 -28 -2 -28
5 0 6 -5 11 -12 11 -8 0 -6 -6 4 -17z"/>
<path d="M3154 2548 l-19 -23 25 20 c14 11 27 21 29 22 2 2 0 3 -6 3 -5 0 -18
-10 -29 -22z"/>
<path d="M2923 2548 c-31 -40 -27 -50 5 -13 12 14 18 25 13 25 -5 0 -13 -6
-18 -12z"/>
<path d="M884 2518 l-19 -21 28 18 c28 18 33 25 19 25 -5 0 -17 -10 -28 -22z"/>
<path d="M1240 2530 c-9 -6 -10 -10 -3 -10 6 0 15 5 18 10 8 12 4 12 -15 0z"/>
<path d="M2770 2533 c0 -6 8 -17 18 -24 16 -13 16 -13 2 6 -8 11 -16 22 -17
24 -2 2 -3 0 -3 -6z"/>
<path d="M1190 2510 c-12 -8 -10 -10 8 -10 13 0 20 4 17 10 -7 12 -6 12 -25 0z"/>
<path d="M2480 2509 c0 -5 6 -9 13 -9 8 0 7 -4 -3 -10 -17 -11 -4 -12 22 -2
15 6 14 9 -7 19 -14 6 -25 7 -25 2z"/>
<path d="M2940 2510 c-9 -6 -10 -10 -3 -10 6 0 15 5 18 10 8 12 4 12 -15 0z"/>
<path d="M3485 2510 c-3 -5 -1 -10 4 -10 6 0 11 5 11 10 0 6 -2 10 -4 10 -3 0
-8 -4 -11 -10z"/>
<path d="M1786 2493 c-5 -5 -196 -25 -253 -27 -46 -1 -70 -7 -91 -23 -26 -19
-52 -27 -77 -24 -5 1 -3 6 5 12 13 9 13 10 0 6 -8 -2 -14 -11 -12 -21 3 -16
-16 -21 -63 -18 -13 2 -16 -1 -8 -6 8 -5 -8 -15 -45 -27 -31 -10 -64 -25 -73
-32 -9 -7 -19 -10 -23 -6 -4 4 -10 3 -14 -3 -8 -12 -122 -74 -136 -74 -5 0 -3
6 4 14 10 13 8 13 -14 3 -14 -7 -21 -13 -16 -15 6 -2 10 -8 10 -13 0 -6 -5 -7
-10 -4 -6 3 -10 2 -10 -2 0 -14 -59 -45 -72 -37 -6 4 -8 3 -4 -4 3 -6 -3 -13
-14 -17 -11 -3 -20 -10 -20 -16 0 -5 -10 -8 -22 -6 -17 1 -22 -3 -20 -17 2
-10 -1 -16 -6 -13 -4 3 -19 -4 -33 -16 -35 -32 -112 -92 -119 -92 -10 -1 -45
-24 -36 -25 12 0 -24 -40 -37 -40 -6 0 -2 9 8 20 18 20 18 21 0 14 -14 -6 -16
-4 -10 6 5 8 4 11 -2 7 -6 -4 -9 -20 -7 -37 2 -17 -1 -30 -7 -30 -6 0 -20 -12
-31 -26 -12 -14 -27 -23 -35 -20 -9 4 -11 2 -7 -6 4 -6 0 -16 -8 -22 -47 -35
-45 -102 3 -137 17 -12 27 -24 24 -27 -3 -4 -11 0 -16 8 -9 13 -10 13 -6 0 2
-8 12 -15 21 -15 10 0 26 -10 36 -22 9 -12 21 -19 25 -15 5 4 5 -1 2 -10 -4
-12 1 -21 13 -28 11 -6 20 -8 20 -5 0 6 84 -58 145 -110 22 -19 45 -35 52 -35
6 0 23 -15 38 -32 15 -20 23 -25 18 -13 -6 18 -5 18 10 6 9 -7 14 -18 10 -24
-3 -5 -2 -7 4 -4 6 4 19 -1 29 -9 18 -15 18 -15 -4 -11 -12 3 -19 1 -16 -4 3
-5 15 -9 27 -8 41 4 58 -1 51 -13 -4 -7 -3 -8 5 -4 15 10 43 -13 34 -27 -4 -6
0 -8 10 -4 16 6 68 -16 95 -40 7 -7 19 -13 27 -13 11 0 38 -11 162 -66 17 -8
45 -17 62 -20 17 -4 31 -12 31 -19 0 -7 7 -16 16 -19 14 -5 15 -4 4 9 -10 12
-10 15 4 15 14 0 21 -11 17 -32 0 -5 4 -8 10 -8 6 0 8 7 5 16 -4 11 -1 14 12
10 9 -3 29 -8 44 -12 16 -3 26 -9 24 -13 -2 -3 15 -6 37 -6 23 -1 88 -6 143
-13 130 -16 264 -22 264 -12 0 4 17 8 38 8 20 0 59 6 85 12 27 6 53 8 58 5 5
-4 9 -1 9 5 0 7 18 9 54 6 38 -4 59 -1 72 10 18 13 17 14 -11 9 -29 -5 -28 -4
5 9 42 17 53 19 46 7 -4 -5 3 -7 15 -4 16 4 17 8 7 14 -9 6 -5 9 13 9 14 0 29
3 33 7 4 4 13 8 19 9 7 0 21 2 32 3 17 1 18 3 5 11 -13 8 -13 10 2 10 26 0 32
-19 12 -41 -15 -17 -15 -19 -2 -14 21 8 31 34 18 50 -7 8 14 24 81 58 50 25
86 40 79 32 -8 -10 -8 -15 1 -21 8 -5 9 -3 4 6 -5 9 -2 10 13 6 33 -11 61 9
58 41 -3 24 4 33 57 65 33 20 73 42 89 49 15 6 28 15 28 20 0 5 -12 2 -27 -8
-19 -11 -15 -5 12 20 36 33 55 44 55 33 0 -3 -7 -12 -16 -20 -8 -9 -11 -16 -6
-16 13 0 33 26 30 37 -4 12 57 73 72 73 6 0 8 5 4 12 -5 7 -2 9 8 6 8 -4 21
-2 29 4 11 8 10 9 -5 4 -11 -4 -4 9 20 33 32 32 42 37 54 28 13 -11 13 -10 1
6 -12 15 -10 21 20 50 40 38 44 72 12 107 -13 14 -23 28 -23 33 0 4 -5 5 -12
1 -8 -5 -9 -2 -5 9 15 37 19 52 10 42 -10 -12 -56 -18 -49 -6 3 4 -6 14 -19
21 -19 10 -24 19 -19 34 4 17 3 18 -5 6 -10 -13 -15 -8 -12 12 0 4 -7 4 -16 1
-9 -4 -14 -2 -11 3 5 9 -25 43 -39 45 -5 1 -28 20 -53 42 -25 22 -40 37 -33
33 6 -3 14 -2 17 3 4 5 -5 8 -19 6 -16 -1 -24 2 -22 9 2 6 11 10 19 10 8 -1
15 5 15 12 0 9 -5 10 -17 4 -33 -18 -60 -7 -118 50 -15 14 -30 24 -34 22 -5
-1 -14 2 -21 8 -25 22 -124 76 -169 94 -27 10 -48 22 -48 27 0 5 -3 8 -7 8
-29 -5 -35 3 -13 17 17 10 18 13 5 9 -50 -18 -58 -18 -50 -5 5 8 4 11 -3 6 -6
-3 -23 -1 -39 6 -15 6 -35 13 -43 14 -54 10 -139 41 -133 49 4 4 0 5 -10 2
-10 -4 -65 0 -122 9 -89 13 -262 24 -269 17z m349 -48 c334 -75 601 -227 892
-508 90 -88 123 -126 123 -143 0 -18 -28 -53 -97 -123 -179 -179 -349 -305
-542 -401 -371 -184 -751 -207 -1166 -68 -133 44 -364 158 -488 242 -184 124
-397 311 -397 349 0 40 255 256 450 381 68 43 298 160 355 179 183 63 305 94
435 111 74 9 366 -3 435 -19z m-608 9 c-3 -3 -12 -4 -19 -1 -8 3 -5 6 6 6 11
1 17 -2 13 -5z m-52 -14 c-27 -12 -43 -12 -25 0 8 5 22 9 30 9 10 0 8 -3 -5
-9z m1635 -540 c0 -5 -2 -10 -4 -10 -3 0 -8 5 -11 10 -3 6 -1 10 4 10 6 0 11
-4 11 -10z m-2515 -280 c3 -6 -1 -7 -9 -4 -18 7 -21 14 -7 14 6 0 13 -4 16
-10z m2100 -280 c-17 -18 -17 -20 -2 -14 9 3 17 2 17 -4 0 -9 -23 -22 -40 -22
-15 0 -4 32 15 46 27 20 31 17 10 -6z m-458 -206 c-3 -3 -12 -4 -19 -1 -8 3
-5 6 6 6 11 1 17 -2 13 -5z"/>
<path d="M1478 2383 c7 -3 16 -2 19 1 4 3 -2 6 -13 5 -11 0 -14 -3 -6 -6z"/>
<path d="M1675 2376 c-312 -47 -590 -169 -890 -392 -60 -44 -137 -106 -170
-137 l-60 -57 45 -41 c198 -182 429 -331 663 -429 479 -199 964 -156 1392 125
91 60 241 184 328 272 l77 79 -102 96 c-131 122 -193 172 -299 241 -179 116
-382 202 -554 232 -124 22 -320 27 -430 11z m200 -16 c-72 -7 -68 -7 35 -5
115 3 298 -23 327 -47 7 -5 16 -7 22 -4 5 4 15 0 23 -7 7 -8 30 -17 49 -21 43
-8 239 -103 239 -116 0 -5 -4 -12 -10 -15 -5 -3 -10 -10 -10 -16 0 -13 38 -49
53 -49 8 0 7 4 -3 10 -13 8 -13 10 2 10 9 0 19 -6 21 -12 4 -8 6 -9 6 -2 1 7
-10 19 -24 28 -14 9 -25 24 -24 34 0 9 3 12 5 5 3 -7 13 -9 22 -6 15 4 15 3 2
-6 -8 -6 -12 -11 -7 -11 16 0 23 -4 35 -19 9 -10 11 -11 6 -2 -13 26 77 -35
142 -96 13 -12 24 -20 24 -17 0 2 20 -16 45 -41 25 -25 49 -45 54 -45 4 0 16
-8 25 -19 16 -17 16 -19 0 -25 -9 -4 -24 -4 -34 -1 -10 3 -17 0 -17 -8 0 -13
30 -15 60 -2 14 6 28 -1 55 -29 l37 -36 -38 -35 c-20 -19 -37 -31 -38 -27 0 4
-4 -3 -9 -15 -5 -13 -17 -23 -25 -23 -9 0 -13 -4 -10 -10 3 -5 2 -10 -3 -10
-5 0 -20 -10 -33 -23 -53 -51 -137 -117 -148 -117 -7 0 -9 -4 -6 -10 4 -6 -1
-7 -11 -3 -12 5 -15 3 -9 -6 5 -10 2 -11 -14 -6 -16 5 -20 3 -15 -8 6 -17 -73
-67 -108 -67 -17 0 -19 -3 -9 -9 39 -25 -403 -194 -461 -175 -12 3 -18 2 -15
-3 4 -5 1 -10 -6 -10 -7 -1 -45 -4 -85 -7 -45 -4 -71 -3 -68 3 3 5 -3 7 -14 4
-11 -3 -20 -9 -20 -14 0 -5 -12 -9 -26 -9 -14 0 -23 3 -21 8 3 4 -32 7 -76 7
-97 1 -204 18 -307 49 -41 13 -88 27 -105 31 -27 7 -28 8 -10 16 16 8 15 9 -9
5 -36 -5 -136 38 -136 59 0 8 -8 15 -17 14 -11 0 -13 -3 -5 -6 6 -2 12 -8 12
-13 0 -4 -18 1 -40 11 -22 11 -40 22 -40 25 0 3 5 2 12 -2 6 -4 8 -3 5 4 -4 5
-15 8 -25 5 -10 -2 -28 5 -41 16 -13 11 -32 23 -42 26 -11 4 -16 11 -13 17 4
6 1 8 -7 6 -15 -6 -79 28 -92 49 -4 7 -13 13 -19 13 -6 0 -29 15 -52 33 -23
18 -60 45 -84 60 -29 19 -42 33 -38 43 3 9 2 12 -5 9 -12 -8 -36 11 -62 50
-10 17 -16 21 -13 11 6 -16 4 -17 -10 -5 -14 12 -14 14 2 26 10 7 13 13 8 13
-6 0 -15 -5 -22 -12 -6 -6 -15 -9 -18 -5 -10 10 24 57 42 57 8 0 13 4 9 9 -3
6 1 13 9 18 8 4 30 22 48 39 25 23 43 31 66 29 17 -1 29 2 26 7 -3 5 -15 6
-27 2 -20 -6 -20 -5 -8 10 8 9 20 15 27 12 8 -3 13 -2 11 3 -5 18 141 120 163
113 8 -3 12 -1 8 3 -12 13 190 129 237 137 11 1 26 8 33 15 7 7 20 9 30 6 9
-3 13 -2 9 2 -4 5 25 22 65 37 40 16 74 24 76 18 2 -5 16 -1 30 10 15 10 47
22 72 25 25 4 70 12 100 19 58 14 101 12 132 -5 17 -9 18 -8 9 8 -9 18 -5 19
92 20 l102 0 -80 -7z m709 -259 c-6 -6 -24 19 -24 34 1 6 7 1 15 -9 8 -11 12
-22 9 -25z"/>
<path d="M1678 2338 c5 -5 16 -8 23 -6 8 3 3 7 -10 11 -17 4 -21 3 -13 -5z"/>
<path d="M1628 2333 c6 -2 18 -2 25 0 6 3 1 5 -13 5 -14 0 -19 -2 -12 -5z"/>
<path d="M1995 2320 c-3 -6 1 -7 9 -4 18 7 21 14 7 14 -6 0 -13 -4 -16 -10z"/>
<path d="M2236 2281 c-4 -5 3 -7 14 -4 23 6 26 13 6 13 -8 0 -17 -4 -20 -9z"/>
<path d="M1364 2255 c11 -11 20 -12 38 -5 23 10 23 11 1 6 -13 -2 -26 0 -29 5
-3 5 -10 9 -15 9 -6 0 -4 -7 5 -15z"/>
<path d="M2161 2254 c0 -11 3 -14 6 -6 3 7 2 16 -1 19 -3 4 -6 -2 -5 -13z"/>
<path d="M2270 2266 c0 -8 49 -13 60 -6 6 4 -5 7 -25 8 -19 1 -35 0 -35 -2z"/>
<path d="M1310 2245 c-7 -8 -9 -15 -6 -15 4 0 14 7 22 15 9 8 11 15 6 15 -5 0
-15 -7 -22 -15z"/>
<path d="M2358 2243 c7 -3 16 -2 19 1 4 3 -2 6 -13 5 -11 0 -14 -3 -6 -6z"/>
<path d="M1253 2184 c-17 -19 -27 -34 -23 -34 12 0 60 49 60 60 0 13 0 13 -37
-26z"/>
<path d="M2480 2190 c0 -8 61 -33 66 -27 2 2 -12 10 -31 19 -19 8 -35 12 -35
8z"/>
<path d="M1740 2180 c-56 -11 -150 -55 -180 -83 -21 -21 -30 -23 -41 -14 -11
10 -11 9 -1 -5 11 -13 10 -18 -6 -30 -11 -7 -29 -31 -41 -53 -11 -22 -21 -32
-21 -23 0 9 5 20 10 23 6 3 10 11 10 18 0 8 -3 8 -11 0 -6 -6 -19 -9 -28 -6
-10 3 -12 2 -5 -4 20 -16 22 -54 5 -103 -10 -28 -21 -53 -24 -57 -4 -3 -7 -11
-7 -17 0 -6 5 -4 10 4 14 22 13 -5 -1 -32 -8 -14 -8 -27 -1 -42 14 -31 35
-107 37 -139 1 -15 5 -30 10 -35 4 -4 5 4 1 18 -5 17 0 13 14 -12 11 -20 30
-44 42 -52 12 -9 19 -16 14 -16 -5 0 8 -13 29 -30 21 -16 43 -30 49 -30 6 0 4
-5 -4 -11 -12 -9 -12 -10 4 -5 10 4 29 0 42 -9 28 -18 96 -37 145 -40 20 -1
42 -6 48 -10 7 -4 15 -4 18 -1 4 3 0 6 -8 6 -11 0 -11 2 1 10 8 5 26 9 40 9
l25 -1 -25 -8 c-24 -8 -24 -8 -2 -9 12 -1 25 6 28 14 3 8 21 17 40 21 20 4 31
10 27 17 -4 6 2 8 15 5 12 -4 20 -3 17 1 -7 12 75 75 99 76 11 1 22 7 24 14 2
6 9 8 14 5 7 -4 8 -2 4 4 -4 6 -2 20 3 30 7 13 7 22 0 29 -8 8 -6 18 4 34 28
44 41 131 29 195 -18 95 -21 105 -33 120 -6 8 -9 20 -5 29 3 8 2 14 -2 12 -4
-1 -29 22 -56 51 -46 49 -132 108 -173 117 -10 3 -36 9 -58 14 -45 12 -74 12
-125 1z m228 -56 c72 -36 138 -103 171 -174 23 -48 26 -68 26 -160 0 -94 -3
-111 -28 -161 -30 -62 -103 -136 -163 -167 -138 -69 -304 -46 -419 59 -91 84
-132 202 -112 329 16 109 63 181 163 250 97 68 253 78 362 24z m175 -557 c-10
-17 -25 -33 -33 -35 -9 -3 -4 9 12 30 15 20 24 39 20 43 -4 5 -1 5 6 1 10 -6
9 -14 -5 -39z"/>
<path d="M1714 2068 c-51 -17 -126 -80 -159 -132 -28 -46 -30 -56 -30 -145 0
-93 1 -99 34 -150 85 -132 236 -174 379 -105 61 30 125 104 142 162 16 58 12
162 -8 204 -28 60 -83 118 -136 145 -57 29 -168 40 -222 21z m204 -32 c19 -10
32 -20 29 -23 -3 -2 -16 2 -29 10 -12 8 -36 17 -53 21 -29 5 -29 5 -5 -5 14
-6 38 -17 53 -25 16 -8 33 -11 39 -8 12 7 68 -44 68 -63 0 -7 5 -13 10 -13 17
0 44 -91 41 -137 0 -7 -1 -24 -2 -36 -1 -13 -10 -29 -20 -35 -21 -14 -26 -3
-7 16 9 9 9 12 0 12 -18 0 -23 -21 -13 -55 5 -16 10 -23 10 -14 1 16 31 49 31
34 0 -15 -74 -117 -89 -123 -9 -3 -22 -14 -29 -24 -7 -10 -21 -18 -31 -18 -9
0 -21 -4 -27 -10 -5 -5 -35 -12 -66 -16 -48 -6 -61 -3 -86 15 -35 25 -50 27
-32 6 11 -13 10 -14 -4 -9 -9 3 -16 10 -16 15 0 5 -6 9 -13 9 -7 0 -29 14 -50
31 -29 24 -36 35 -31 54 3 12 1 26 -5 30 -6 3 -9 18 -5 33 5 24 4 25 -6 8 -10
-14 -9 -24 1 -42 7 -13 9 -27 6 -30 -4 -4 -16 14 -27 40 -21 50 -27 82 -10 56
8 -13 10 -12 10 3 0 9 -4 17 -10 17 -5 0 -10 20 -10 45 0 25 5 45 11 45 5 0 7
5 4 11 -14 21 6 59 60 115 48 49 59 56 84 51 18 -4 36 0 47 9 18 13 17 14 -11
9 -23 -4 -25 -3 -10 4 33 14 156 6 193 -13z"/>
<path d="M1664 2012 c-8 -5 -5 -13 9 -27 20 -20 20 -20 8 2 -9 18 -8 22 7 26
12 3 13 5 2 6 -8 0 -20 -3 -26 -7z"/>
<path d="M1753 2005 c0 -7 6 -11 14 -8 7 3 13 6 13 8 0 2 -6 5 -13 8 -8 3 -14
-1 -14 -8z"/>
<path d="M1848 2013 c6 -2 18 -2 25 0 6 3 1 5 -13 5 -14 0 -19 -2 -12 -5z"/>
<path d="M1875 1986 c37 -14 71 -7 44 9 -8 6 -10 4 -4 -5 6 -10 4 -11 -11 -5
-10 4 -30 9 -44 12 -14 2 -7 -3 15 -11z"/>
<path d="M1697 1955 c-15 -19 -25 -35 -21 -35 7 0 28 25 45 53 15 27 7 20 -24
-18z"/>
<path d="M1760 1959 c0 -5 -5 -9 -12 -9 -20 0 -76 -43 -87 -67 -6 -13 -16 -23
-22 -23 -8 0 -7 5 2 17 11 13 11 17 1 20 -6 3 -10 8 -8 12 6 9 -31 8 -40 -1
-3 -4 -3 -12 1 -18 5 -8 11 -8 21 1 11 9 14 8 14 -5 0 -9 -5 -16 -10 -16 -6 0
-5 -6 2 -14 7 -8 15 -13 18 -11 3 2 5 -25 5 -58 0 -46 5 -70 21 -92 23 -34 26
-74 5 -99 -12 -14 -12 -16 3 -10 9 3 16 10 16 15 0 5 7 9 15 9 8 0 15 -4 15
-10 0 -5 5 -10 11 -10 16 0 -1 20 -24 29 -20 7 -19 8 6 13 15 3 25 3 22 0 -8
-8 16 -32 33 -32 13 0 12 3 -4 15 -18 14 -16 15 22 9 26 -4 53 0 79 10 21 9
40 14 43 12 2 -3 -6 -9 -19 -15 -13 -5 -35 -14 -49 -20 -24 -10 -23 -10 5 -4
17 4 39 7 51 8 14 0 20 6 19 20 -1 11 9 33 22 48 12 16 23 34 24 40 0 7 7 -1
15 -18 13 -25 14 -26 9 -5 -4 14 -10 54 -14 90 -4 36 -13 76 -20 89 -11 19
-11 25 0 33 10 7 8 8 -7 3 -13 -3 -26 1 -34 10 -10 12 -10 15 1 15 8 0 5 6 -7
15 -10 8 -26 14 -34 14 -8 0 -4 -5 9 -10 33 -13 21 -21 -15 -10 -47 15 -104
21 -104 10z m148 -62 c39 -40 52 -85 40 -142 -21 -95 -134 -145 -216 -95 -52
32 -74 75 -70 140 7 96 61 143 157 136 46 -4 60 -11 89 -39z m-193 -247 c3 -5
2 -10 -4 -10 -5 0 -13 5 -16 10 -3 6 -2 10 4 10 5 0 13 -4 16 -10z"/>
<path d="M1850 1881 c0 -6 4 -13 10 -16 6 -3 7 1 4 9 -7 18 -14 21 -14 7z"/>
<path d="M1742 1854 c-7 -8 -8 -14 -3 -14 10 0 25 19 20 25 -2 1 -10 -3 -17
-11z"/>
<path d="M1746 1747 c3 -10 9 -15 12 -12 3 3 0 11 -7 18 -10 9 -11 8 -5 -6z"/>
<path d="M2001 1935 c1 -11 -3 -31 -7 -44 -5 -17 -4 -22 4 -17 7 4 12 16 12
26 0 14 5 18 18 14 13 -5 14 -4 3 4 -7 5 -17 16 -22 23 -6 10 -8 9 -8 -6z"/>
<path d="M1574 1915 c-9 -13 -14 -28 -12 -33 1 -5 10 6 19 24 19 40 16 44 -7
9z"/>
<path d="M1960 1893 c0 -4 5 -15 10 -23 8 -13 10 -13 10 2 0 9 -4 20 -10 23
-5 3 -10 3 -10 -2z"/>
<path d="M2042 1860 c0 -14 2 -19 5 -12 2 6 2 18 0 25 -3 6 -5 1 -5 -13z"/>
<path d="M1616 1813 c9 -38 14 -42 14 -10 0 14 -5 29 -10 32 -7 4 -8 -3 -4
-22z"/>
<path d="M1982 1810 c0 -19 2 -27 5 -17 2 9 2 25 0 35 -3 9 -5 1 -5 -18z"/>
<path d="M2000 1770 c0 -11 4 -20 9 -20 5 0 7 9 4 20 -3 11 -7 20 -9 20 -2 0
-4 -9 -4 -20z"/>
<path d="M1625 1735 c4 -17 14 -37 22 -45 11 -12 10 -6 -3 25 -21 51 -28 58
-19 20z"/>
<path d="M1603 1708 c0 -30 1 -30 10 -10 7 15 7 26 0 33 -6 6 -10 -1 -10 -23z"/>
<path d="M1990 1727 c0 -7 7 -22 16 -33 15 -19 15 -19 6 1 -5 11 -7 26 -5 33
3 6 0 12 -6 12 -6 0 -11 -6 -11 -13z"/>
<path d="M2002 1649 c-19 -30 -11 -32 11 -3 10 13 14 24 10 24 -5 0 -14 -9
-21 -21z"/>
<path d="M1847 1593 c-4 -3 -7 -11 -7 -17 0 -6 5 -5 12 2 6 6 9 14 7 17 -3 3
-9 2 -12 -2z"/>
<path d="M1912 1576 c-1 -15 1 -17 7 -7 5 7 15 17 22 22 10 6 8 8 -7 7 -12 -1
-21 -10 -22 -22z"/>
<path d="M1738 1563 c7 -3 16 -2 19 1 4 3 -2 6 -13 5 -11 0 -14 -3 -6 -6z"/>
<path d="M1870 1559 c0 -5 5 -7 10 -4 6 3 10 8 10 11 0 2 -4 4 -10 4 -5 0 -10
-5 -10 -11z"/>
<path d="M2050 1605 c0 -2 6 -8 13 -14 10 -8 14 -7 14 2 0 8 -6 14 -14 14 -7
0 -13 -1 -13 -2z"/>
<path d="M2034 1558 l-19 -23 23 19 c21 18 27 26 19 26 -2 0 -12 -10 -23 -22z"/>
<path d="M1868 1463 c7 -3 16 -2 19 1 4 3 -2 6 -13 5 -11 0 -14 -3 -6 -6z"/>
<path d="M1150 2170 c0 -5 7 -7 15 -4 8 4 15 8 15 10 0 2 -7 4 -15 4 -8 0 -15
-4 -15 -10z"/>
<path d="M2066 2155 c-3 -9 -15 -19 -27 -23 -20 -8 -20 -8 5 -20 16 -7 28 -8
31 -2 4 6 -1 10 -10 10 -15 0 -15 1 -1 16 9 8 16 20 16 25 0 14 -7 11 -14 -6z"/>
<path d="M1993 2153 c9 -2 15 -9 12 -14 -3 -5 1 -6 10 -2 13 5 14 7 3 14 -7 5
-20 8 -28 8 -11 -1 -10 -3 3 -6z"/>
<path d="M1535 2120 c-8 -13 5 -13 25 0 13 8 13 10 -2 10 -9 0 -20 -4 -23 -10z"/>
<path d="M1277 2079 c7 -7 15 -10 18 -7 3 3 -2 9 -12 12 -14 6 -15 5 -6 -5z"/>
<path d="M2094 2072 c23 -26 22 -26 30 -6 3 9 2 12 -5 9 -5 -4 -18 -1 -27 6
-13 11 -12 8 2 -9z"/>
<path d="M2650 2086 c0 -2 7 -7 16 -10 8 -3 12 -2 9 4 -6 10 -25 14 -25 6z"/>
<path d="M910 2044 c-19 -14 -39 -30 -45 -37 -5 -6 -2 -5 7 2 13 9 22 10 40 1
20 -10 21 -10 6 3 -16 13 -16 15 7 27 14 7 25 17 25 22 0 10 1 11 -40 -18z"/>
<path d="M1475 2060 c-3 -5 -2 -10 4 -10 5 0 13 5 16 10 3 6 2 10 -4 10 -5 0
-13 -4 -16 -10z"/>
<path d="M2137 2053 c-4 -3 -7 -11 -7 -17 0 -6 5 -5 12 2 6 6 9 14 7 17 -3 3
-9 2 -12 -2z"/>
<path d="M2440 2030 c0 -5 5 -10 10 -10 6 0 10 5 10 10 0 6 -4 10 -10 10 -5 0
-10 -4 -10 -10z"/>
<path d="M2720 2025 c-7 -9 -10 -18 -6 -22 3 -3 6 -1 6 5 0 7 8 12 18 12 12 0
14 -2 4 -8 -8 -6 -2 -9 18 -9 31 0 29 4 -11 27 -12 7 -21 5 -29 -5z"/>
<path d="M930 2026 c0 -2 7 -7 16 -10 8 -3 12 -2 9 4 -6 10 -25 14 -25 6z"/>
<path d="M2385 1970 c-3 -5 -1 -10 4 -10 6 0 11 5 11 10 0 6 -2 10 -4 10 -3 0
-8 -4 -11 -10z"/>
<path d="M2825 1940 c-3 -5 -1 -10 4 -10 6 0 11 5 11 10 0 6 -2 10 -4 10 -3 0
-8 -4 -11 -10z"/>
<path d="M1195 1919 c-4 -6 -5 -12 -2 -15 2 -3 7 2 10 11 7 17 1 20 -8 4z"/>
<path d="M2211 1904 c0 -11 3 -14 6 -6 3 7 2 16 -1 19 -3 4 -6 -2 -5 -13z"/>
<path d="M2415 1900 c-26 -29 -15 -32 13 -4 12 13 19 24 14 24 -5 0 -17 -9
-27 -20z"/>
<path d="M2896 1885 c10 -8 24 -14 29 -14 6 0 1 6 -9 14 -11 8 -24 15 -30 15
-5 0 -1 -7 10 -15z"/>
<path d="M2850 1874 c0 -8 5 -12 10 -9 6 3 10 10 10 16 0 5 -4 9 -10 9 -5 0
-10 -7 -10 -16z"/>
<path d="M2218 1852 c-3 -11 0 -19 7 -19 7 0 10 8 7 19 -2 10 -6 18 -7 18 -1
0 -5 -8 -7 -18z"/>
<path d="M2462 1854 c-7 -8 -8 -14 -3 -14 10 0 25 19 20 25 -2 1 -10 -3 -17
-11z"/>
<path d="M2365 1850 c-3 -5 -1 -10 4 -10 6 0 11 5 11 10 0 6 -2 10 -4 10 -3 0
-8 -4 -11 -10z"/>
<path d="M2825 1839 c-4 -6 -13 -8 -21 -5 -8 3 -11 0 -7 -10 5 -13 8 -13 24 2
19 17 23 24 15 24 -3 0 -8 -5 -11 -11z"/>
<path d="M1370 1831 c0 -6 4 -13 10 -16 6 -3 7 1 4 9 -7 18 -14 21 -14 7z"/>
<path d="M2750 1829 c0 -5 5 -7 10 -4 6 3 10 8 10 11 0 2 -4 4 -10 4 -5 0 -10
-5 -10 -11z"/>
<path d="M2955 1819 c-4 -6 -4 -13 -1 -16 3 -4 6 -1 6 5 0 17 27 15 34 -3 3
-8 10 -15 16 -15 5 0 2 9 -7 20 -19 22 -38 26 -48 9z"/>
<path d="M2316 1803 c-6 -14 -5 -15 5 -6 7 7 10 15 7 18 -3 3 -9 -2 -12 -12z"/>
<path d="M1356 1793 c-6 -14 -5 -15 5 -6 7 7 10 15 7 18 -3 3 -9 -2 -12 -12z"/>
<path d="M2757 1780 c-8 -12 -20 -20 -28 -18 -7 2 -13 -4 -14 -13 0 -9 -11
-26 -25 -37 -14 -11 -22 -23 -19 -26 3 -3 32 21 64 54 33 33 54 60 48 60 -7 0
-18 -9 -26 -20z"/>
<path d="M2976 1785 c5 -13 4 -16 -4 -11 -8 5 -10 2 -6 -9 5 -11 2 -14 -10 -9
-9 3 -16 1 -16 -5 0 -18 24 -13 42 8 15 17 15 21 2 32 -12 10 -13 9 -8 -6z"/>
<path d="M1315 1760 c-3 -6 1 -7 9 -4 18 7 21 14 7 14 -6 0 -13 -4 -16 -10z"/>
<path d="M2764 1738 c-29 -31 -29 -31 -2 -12 15 10 29 25 32 32 8 18 2 15 -30
-20z"/>
<path d="M671 1744 c0 -11 3 -14 6 -6 3 7 2 16 -1 19 -3 4 -6 -2 -5 -13z"/>
<path d="M2670 1749 c0 -5 5 -7 10 -4 6 3 10 8 10 11 0 2 -4 4 -10 4 -5 0 -10
-5 -10 -11z"/>
<path d="M2904 1736 c-10 -8 -17 -17 -14 -19 3 -3 14 1 24 9 11 7 17 16 15 19
-3 3 -14 -2 -25 -9z"/>
<path d="M2201 1723 c-1 -6 -4 -20 -7 -30 -5 -17 -5 -17 6 0 6 10 9 23 6 30
-3 9 -5 9 -5 0z"/>
<path d="M2788 1716 c-19 -14 -23 -26 -10 -26 4 0 13 9 20 20 14 23 13 24 -10
6z"/>
<path d="M2915 1710 c-3 -5 -2 -10 4 -10 5 0 13 5 16 10 3 6 2 10 -4 10 -5 0
-13 -4 -16 -10z"/>
<path d="M2879 1696 c7 -8 9 -21 5 -27 -4 -8 -3 -9 4 -5 17 10 15 33 -4 40
-14 5 -15 4 -5 -8z"/>
<path d="M2596 1684 c-11 -8 -16 -14 -10 -14 13 0 39 18 34 24 -3 2 -14 -2
-24 -10z"/>
<path d="M2715 1690 c-3 -6 1 -7 9 -4 18 7 21 14 7 14 -6 0 -13 -4 -16 -10z"/>
<path d="M2837 1683 c-10 -9 -9 -23 1 -23 5 0 9 7 9 15 0 17 -1 18 -10 8z"/>
<path d="M744 1665 c11 -8 22 -12 25 -9 6 6 -19 24 -34 24 -5 -1 -1 -7 9 -15z"/>
<path d="M2812 1635 c0 -16 2 -22 5 -12 2 9 2 23 0 30 -3 6 -5 -1 -5 -18z"/>
<path d="M780 1640 c0 -5 5 -10 11 -10 5 0 7 5 4 10 -3 6 -8 10 -11 10 -2 0
-4 -4 -4 -10z"/>
<path d="M2835 1640 c-3 -5 -1 -10 4 -10 6 0 11 5 11 10 0 6 -2 10 -4 10 -3 0
-8 -4 -11 -10z"/>
<path d="M875 1600 c6 -10 4 -12 -11 -6 -15 6 -17 5 -6 -5 9 -9 15 -10 23 -2
8 8 7 13 -2 18 -8 6 -10 4 -4 -5z"/>
<path d="M2743 1587 c13 -11 15 -17 6 -22 -6 -4 -15 -2 -19 5 -5 8 -9 7 -13
-5 -4 -9 -3 -13 3 -10 6 3 10 1 10 -4 0 -7 7 -7 20 1 26 16 25 25 -2 38 -21
10 -22 10 -5 -3z"/>
<path d="M2770 1595 c0 -7 30 -13 34 -7 3 4 -4 9 -15 9 -10 1 -19 0 -19 -2z"/>
<path d="M1444 1556 c-4 -9 -4 -20 0 -23 3 -4 6 2 6 13 1 19 1 19 15 0 8 -11
15 -15 15 -9 0 6 -7 16 -15 23 -12 10 -16 9 -21 -4z"/>
<path d="M955 1521 c-3 -5 -2 -12 3 -15 5 -3 9 1 9 9 0 17 -3 19 -12 6z"/>
<path d="M983 1505 c0 -7 8 -10 19 -7 10 2 18 6 18 7 0 1 -8 5 -18 7 -11 3
-19 0 -19 -7z"/>
<path d="M1391 1494 c-12 -14 -20 -28 -17 -31 3 -4 7 -4 9 -2 1 2 13 16 26 32
30 34 15 35 -18 1z"/>
<path d="M1523 1470 c0 -24 2 -26 14 -14 12 12 12 16 0 28 -12 12 -14 10 -14
-14z"/>
<path d="M2640 1489 c0 -5 5 -7 10 -4 6 3 10 8 10 11 0 2 -4 4 -10 4 -5 0 -10
-5 -10 -11z"/>
<path d="M2050 1470 c-12 -7 -12 -11 -2 -20 6 -5 10 -7 7 -4 -3 4 0 13 6 21
13 15 10 16 -11 3z"/>
<path d="M1155 1410 c-13 -5 -14 -9 -5 -9 8 0 24 4 35 9 13 5 14 9 5 9 -8 0
-24 -4 -35 -9z"/>
<path d="M2201 1398 c-14 -23 -14 -23 8 -4 22 20 25 26 13 26 -4 0 -13 -10
-21 -22z"/>
<path d="M2520 1410 c-9 -6 -10 -10 -3 -10 6 0 15 5 18 10 8 12 4 12 -15 0z"/>
<path d="M1708 1393 c6 -2 18 -2 25 0 6 3 1 5 -13 5 -14 0 -19 -2 -12 -5z"/>
<path d="M1915 1383 l-30 -14 30 6 c31 7 41 12 34 19 -2 2 -17 -3 -34 -11z"/>
<path d="M2480 1389 c0 -5 5 -7 10 -4 6 3 10 8 10 11 0 2 -4 4 -10 4 -5 0 -10
-5 -10 -11z"/>
<path d="M1261 1371 c-7 -5 -2 -12 14 -21 30 -16 38 -11 15 11 -10 9 -23 13
-29 10z"/>
<path d="M1716 1372 c-2 -4 11 -6 30 -4 19 2 34 6 34 8 0 8 -59 4 -64 -4z"/>
<path d="M1858 1363 c7 -3 16 -2 19 1 4 3 -2 6 -13 5 -11 0 -14 -3 -6 -6z"/>
<path d="M2382 1357 c-10 -12 -8 -14 20 -11 17 2 34 7 37 10 3 4 -4 5 -16 2
-12 -3 -24 -1 -25 4 -2 6 -9 4 -16 -5z"/>
<path d="M2331 1326 c-10 -12 -8 -13 8 -9 12 3 21 9 21 14 0 14 -16 11 -29 -5z"/>
<path d="M2153 1283 c9 -15 -26 -26 -55 -18 -21 5 -21 5 -5 -5 12 -8 31 -9 54
-3 34 8 35 9 17 23 -10 8 -15 10 -11 3z"/>
<path d="M1505 1270 c11 -5 27 -9 35 -9 9 0 8 4 -5 9 -11 5 -27 9 -35 9 -9 0
-8 -4 5 -9z"/>
<path d="M1631 1269 c-18 -6 -31 -12 -29 -14 5 -5 78 14 78 20 0 6 -8 5 -49
-6z"/>
<path d="M1720 1260 c0 -5 5 -10 10 -10 6 0 10 5 10 10 0 6 -4 10 -10 10 -5 0
-10 -4 -10 -10z"/>
<path d="M1670 1250 c0 -5 7 -7 15 -4 8 4 15 8 15 10 0 2 -7 4 -15 4 -8 0 -15
-4 -15 -10z"/>
<path d="M1848 1253 c7 -3 16 -2 19 1 4 3 -2 6 -13 5 -11 0 -14 -3 -6 -6z"/>
<path d="M1708 1233 c7 -3 16 -2 19 1 4 3 -2 6 -13 5 -11 0 -14 -3 -6 -6z"/>
<path d="M2713 2135 c0 -8 4 -12 9 -9 5 3 6 10 3 15 -9 13 -12 11 -12 -6z"/>
<path d="M725 1570 c-3 -6 1 -7 9 -4 18 7 21 14 7 14 -6 0 -13 -4 -16 -10z"/>
<path d="M2540 2480 c-13 -8 -12 -10 3 -10 9 0 17 5 17 10 0 12 -1 12 -20 0z"/>
<path d="M3125 2480 c-3 -6 1 -7 9 -4 18 7 21 14 7 14 -6 0 -13 -4 -16 -10z"/>
<path d="M1398 2473 c7 -3 16 -2 19 1 4 3 -2 6 -13 5 -11 0 -14 -3 -6 -6z"/>
<path d="M1420 2464 c-22 -8 -28 -13 -15 -13 11 0 31 6 45 14 31 17 17 17 -30
-1z"/>
<path d="M2979 2461 c-13 -11 -21 -22 -18 -25 3 -3 16 5 29 19 28 30 22 33
-11 6z"/>
<path d="M2840 2467 c0 -1 9 -10 19 -19 17 -14 20 -14 25 -2 3 8 2 12 -3 9 -5
-3 -12 -1 -16 5 -5 9 -25 15 -25 7z"/>
<path d="M2280 2450 c-21 -7 -22 -8 -4 -9 11 -1 25 -6 32 -13 9 -9 12 -9 12 0
0 7 -6 12 -12 12 -9 0 -8 4 2 10 18 11 5 11 -30 0z"/>
<path d="M745 2440 c-25 -11 1 -11 35 0 20 6 21 8 5 8 -11 0 -29 -3 -40 -8z"/>
<path d="M2994 2429 c-19 -22 -19 -22 3 -10 24 12 39 31 25 31 -5 0 -17 -10
-28 -21z"/>
<path d="M641 2414 c0 -11 3 -14 6 -6 3 7 2 16 -1 19 -3 4 -6 -2 -5 -13z"/>
<path d="M1070 2420 c-8 -5 -12 -12 -9 -15 4 -3 12 1 19 10 14 17 11 19 -10 5z"/>
<path d="M2600 2420 c0 -5 5 -10 11 -10 5 0 7 5 4 10 -3 6 -8 10 -11 10 -2 0
-4 -4 -4 -10z"/>
<path d="M2636 2412 c-3 -4 4 -9 15 -9 23 -2 25 3 4 10 -8 4 -16 3 -19 -1z"/>
<path d="M3020 2410 c-9 -6 -10 -10 -3 -10 6 0 15 5 18 10 8 12 4 12 -15 0z"/>
<path d="M2920 2400 c0 -5 5 -10 11 -10 5 0 7 5 4 10 -3 6 -8 10 -11 10 -2 0
-4 -4 -4 -10z"/>
<path d="M3535 2400 c-3 -5 -2 -10 4 -10 5 0 13 5 16 10 3 6 2 10 -4 10 -5 0
-13 -4 -16 -10z"/>
<path d="M2520 2396 c0 -2 9 -6 20 -9 11 -3 18 -1 14 4 -5 9 -34 13 -34 5z"/>
<path d="M1213 2383 c-7 -2 -13 -9 -13 -15 0 -7 4 -7 13 0 6 5 21 12 32 15
l20 5 -20 0 c-11 0 -26 -2 -32 -5z"/>
<path d="M923 2366 c-10 -11 -9 -15 3 -20 10 -4 13 -2 8 6 -5 7 -2 9 9 5 11
-4 14 -2 10 9 -6 17 -14 17 -30 0z"/>
<path d="M2526 2366 c10 -8 21 -12 24 -10 5 6 -21 24 -34 24 -6 0 -1 -6 10
-14z"/>
<path d="M1150 2359 c0 -5 5 -7 10 -4 6 3 10 8 10 11 0 2 -4 4 -10 4 -5 0 -10
-5 -10 -11z"/>
<path d="M2510 2350 c0 -5 5 -10 11 -10 5 0 7 5 4 10 -3 6 -8 10 -11 10 -2 0
-4 -4 -4 -10z"/>
<path d="M2727 2349 c7 -7 15 -10 18 -7 3 3 -2 9 -12 12 -14 6 -15 5 -6 -5z"/>
<path d="M956 2317 c3 -10 9 -15 12 -12 3 3 0 11 -7 18 -10 9 -11 8 -5 -6z"/>
<path d="M3240 2320 c-8 -5 -10 -10 -5 -10 6 0 17 5 25 10 8 5 11 10 5 10 -5
0 -17 -5 -25 -10z"/>
<path d="M3330 2326 c0 -2 7 -7 16 -10 8 -3 12 -2 9 4 -6 10 -25 14 -25 6z"/>
<path d="M3450 2320 c-8 -5 -12 -12 -9 -15 4 -3 12 1 19 10 14 17 11 19 -10 5z"/>
<path d="M3259 2293 c-13 -16 -12 -17 4 -4 16 13 21 21 13 21 -2 0 -10 -8 -17
-17z"/>
<path d="M3315 2300 c-3 -5 -1 -10 4 -10 6 0 11 5 11 10 0 6 -2 10 -4 10 -3 0
-8 -4 -11 -10z"/>
<path d="M969 2283 c-13 -17 -13 -17 6 -3 11 8 22 16 24 17 2 2 0 3 -6 3 -6 0
-17 -8 -24 -17z"/>
<path d="M1037 2293 c-4 -3 -7 -11 -7 -17 0 -6 5 -5 12 2 6 6 9 14 7 17 -3 3
-9 2 -12 -2z"/>
<path d="M3210 2290 c-8 -5 -12 -12 -9 -15 4 -3 12 1 19 10 14 17 11 19 -10 5z"/>
<path d="M3461 2278 c-14 -23 -14 -23 8 -4 22 20 25 26 13 26 -4 0 -13 -10
-21 -22z"/>
<path d="M3262 2254 c-7 -8 -8 -14 -3 -14 10 0 25 19 20 25 -2 1 -10 -3 -17
-11z"/>
<path d="M865 2250 c-3 -5 -1 -10 4 -10 6 0 11 5 11 10 0 6 -2 10 -4 10 -3 0
-8 -4 -11 -10z"/>
<path d="M505 2240 c-3 -5 -2 -10 4 -10 5 0 13 5 16 10 3 6 2 10 -4 10 -5 0
-13 -4 -16 -10z"/>
<path d="M885 2230 c-3 -6 1 -7 9 -4 18 7 21 14 7 14 -6 0 -13 -4 -16 -10z"/>
<path d="M911 2224 c-7 -8 -11 -17 -9 -20 3 -2 13 5 23 16 10 11 14 20 9 20
-5 -1 -15 -8 -23 -16z"/>
<path d="M2880 2191 c0 -5 5 -13 10 -16 6 -3 10 -2 10 4 0 5 -4 13 -10 16 -5
3 -10 2 -10 -4z"/>
<path d="M780 2170 c0 -5 5 -10 11 -10 5 0 7 5 4 10 -3 6 -8 10 -11 10 -2 0
-4 -4 -4 -10z"/>
<path d="M431 2144 c0 -11 3 -14 6 -6 3 7 2 16 -1 19 -3 4 -6 -2 -5 -13z"/>
<path d="M2956 2147 c3 -10 9 -15 12 -12 3 3 0 11 -7 18 -10 9 -11 8 -5 -6z"/>
<path d="M740 2120 c-8 -5 -10 -10 -5 -10 6 0 17 5 25 10 8 5 11 10 5 10 -5 0
-17 -5 -25 -10z"/>
<path d="M2986 2115 c4 -8 11 -15 16 -15 6 0 5 6 -2 15 -7 8 -14 15 -16 15 -2
0 -1 -7 2 -15z"/>
<path d="M421 2104 c0 -11 3 -14 6 -6 3 7 2 16 -1 19 -3 4 -6 -2 -5 -13z"/>
<path d="M695 2078 c-25 -15 -49 -38 -44 -43 2 -2 20 10 39 26 37 30 39 36 5
17z"/>
<path d="M2955 2069 c-4 -6 -5 -12 -2 -15 2 -3 7 2 10 11 7 17 1 20 -8 4z"/>
<path d="M3175 2060 c-3 -5 -1 -10 4 -10 6 0 11 5 11 10 0 6 -2 10 -4 10 -3 0
-8 -4 -11 -10z"/>
<path d="M3054 2045 c8 -8 18 -15 22 -15 3 0 1 7 -6 15 -7 8 -17 15 -22 15 -5
0 -3 -7 6 -15z"/>
<path d="M435 2040 c3 -5 11 -10 16 -10 6 0 7 5 4 10 -3 6 -11 10 -16 10 -6 0
-7 -4 -4 -10z"/>
<path d="M3296 2035 c-11 -8 -15 -15 -9 -15 6 0 16 7 23 15 16 19 11 19 -14 0z"/>
<path d="M3155 2030 c-3 -5 -2 -10 4 -10 5 0 13 5 16 10 3 6 2 10 -4 10 -5 0
-13 -4 -16 -10z"/>
<path d="M3040 2021 c0 -10 19 -25 25 -20 1 2 -3 10 -11 17 -8 7 -14 8 -14 3z"/>
<path d="M486 2011 c-4 -5 3 -7 14 -4 23 6 26 13 6 13 -8 0 -17 -4 -20 -9z"/>
<path d="M481 1916 c14 -15 20 -16 35 -6 18 11 18 11 0 6 -10 -4 -26 -1 -35 6
-14 11 -14 10 0 -6z"/>
<path d="M3180 1920 c-9 -6 -10 -10 -3 -10 6 0 15 5 18 10 8 12 4 12 -15 0z"/>
<path d="M3140 1889 c0 -5 5 -7 10 -4 6 3 10 8 10 11 0 2 -4 4 -10 4 -5 0 -10
-5 -10 -11z"/>
<path d="M404 1816 c-2 -22 -1 -23 17 -8 11 9 19 21 19 27 0 5 -5 3 -10 -5 -6
-10 -10 -11 -10 -2 0 23 -15 12 -16 -12z"/>
<path d="M3195 1829 c-4 -6 -5 -12 -2 -15 2 -3 7 2 10 11 7 17 1 20 -8 4z"/>
<path d="M424 1776 c5 -14 3 -17 -11 -12 -15 6 -16 5 -5 -5 17 -18 35 1 21 21
-9 12 -10 12 -5 -4z"/>
<path d="M3190 1741 c0 -7 -4 -10 -9 -6 -5 3 -12 1 -16 -5 -3 -5 1 -10 9 -10
17 0 31 18 22 27 -3 4 -6 1 -6 -6z"/>
<path d="M455 1700 c3 -5 8 -10 11 -10 2 0 4 5 4 10 0 6 -5 10 -11 10 -5 0 -7
-4 -4 -10z"/>
<path d="M3140 1691 c0 -5 9 -7 20 -4 11 3 20 7 20 9 0 2 -9 4 -20 4 -11 0
-20 -4 -20 -9z"/>
<path d="M3275 1679 c-4 -6 -5 -12 -2 -15 2 -3 7 2 10 11 7 17 1 20 -8 4z"/>
<path d="M3085 1630 c-10 -11 -14 -20 -9 -20 5 0 15 9 22 20 7 11 11 20 9 20
-2 0 -12 -9 -22 -20z"/>
<path d="M3068 1565 c-26 -25 -42 -45 -37 -45 6 0 16 6 22 13 7 7 25 27 41 45
43 46 29 39 -26 -13z"/>
<path d="M3045 1589 c-11 -16 -1 -19 13 -3 7 8 8 14 3 14 -5 0 -13 -5 -16 -11z"/>
<path d="M3115 1569 c-4 -6 -5 -12 -2 -15 2 -3 7 2 10 11 7 17 1 20 -8 4z"/>
<path d="M2995 1560 c-3 -5 -2 -10 4 -10 5 0 13 5 16 10 3 6 2 10 -4 10 -5 0
-13 -4 -16 -10z"/>
<path d="M2980 1530 c0 -5 7 -7 15 -4 8 4 15 8 15 10 0 2 -7 4 -15 4 -8 0 -15
-4 -15 -10z"/>
<path d="M2953 1525 c4 -5 0 -19 -8 -32 -9 -13 -12 -23 -7 -23 5 0 14 11 20
25 9 18 8 26 -1 31 -7 4 -9 3 -4 -1z"/>
<path d="M321 1454 c0 -11 3 -14 6 -6 3 7 2 16 -1 19 -3 4 -6 -2 -5 -13z"/>
<path d="M785 1445 c17 -7 29 -16 28 -19 -6 -13 -3 -26 6 -26 19 0 -3 42 -26
51 -36 14 -42 9 -8 -6z"/>
<path d="M2870 1423 c-19 -21 -28 -32 -19 -25 9 6 19 9 22 6 3 -4 12 5 18 19
6 14 19 28 28 30 13 4 13 5 1 6 -8 0 -31 -16 -50 -36z"/>
<path d="M2945 1446 c-23 -25 -26 -40 -4 -19 12 12 21 24 18 27 -2 2 -9 -1
-14 -8z"/>
<path d="M510 1440 c-8 -5 -10 -10 -5 -10 6 0 17 5 25 10 8 5 11 10 5 10 -5 0
-17 -5 -25 -10z"/>
<path d="M476 1405 c-9 -26 -7 -32 5 -12 6 10 9 21 6 23 -2 3 -7 -2 -11 -11z"/>
<path d="M3196 1405 c-9 -26 -7 -32 5 -12 6 10 9 21 6 23 -2 3 -7 -2 -11 -11z"/>
<path d="M3308 1406 c-19 -14 -23 -26 -10 -26 4 0 13 9 20 20 14 23 13 24 -10
6z"/>
<path d="M2776 1389 c-11 -11 -15 -19 -9 -19 12 0 38 28 32 34 -2 2 -13 -5
-23 -15z"/>
<path d="M846 1376 c10 -8 21 -12 24 -10 5 6 -21 24 -34 24 -6 0 -1 -6 10 -14z"/>
<path d="M2871 1370 c-13 -11 -19 -20 -14 -20 6 0 18 9 28 20 23 25 17 25 -14
0z"/>
<path d="M2806 1352 l-19 -27 24 22 c12 12 21 24 18 27 -2 2 -13 -8 -23 -22z"/>
<path d="M3160 1370 c0 -5 5 -10 11 -10 5 0 7 5 4 10 -3 6 -8 10 -11 10 -2 0
-4 -4 -4 -10z"/>
<path d="M76 1353 c-6 -14 -5 -15 5 -6 7 7 10 15 7 18 -3 3 -9 -2 -12 -12z"/>
<path d="M2824 1318 l-19 -23 23 19 c12 11 22 21 22 23 0 8 -8 2 -26 -19z"/>
<path d="M2859 1312 c-8 -10 -23 -24 -34 -30 -11 -6 -15 -12 -8 -12 16 0 69
47 62 55 -4 3 -13 -2 -20 -13z"/>
<path d="M968 1303 c7 -3 16 -2 19 1 4 3 -2 6 -13 5 -11 0 -14 -3 -6 -6z"/>
<path d="M1042 1294 c10 -10 20 -16 22 -13 3 3 -5 11 -17 18 -21 13 -21 12 -5
-5z"/>
<path d="M3055 1260 c-10 -11 -16 -22 -13 -25 2 -3 14 6 26 20 26 30 13 34
-13 5z"/>
<path d="M3330 1245 c-13 -14 -19 -25 -14 -25 8 1 50 50 41 50 -2 0 -14 -11
-27 -25z"/>
<path d="M1140 1240 c13 -8 12 -10 -4 -10 -11 0 -17 -2 -14 -5 3 -4 18 -3 34
1 25 6 26 8 9 15 -28 11 -43 10 -25 -1z"/>
<path d="M2535 1240 c-3 -5 -2 -10 4 -10 5 0 13 5 16 10 3 6 2 10 -4 10 -5 0
-13 -4 -16 -10z"/>
<path d="M2690 1239 c0 -5 5 -7 10 -4 6 3 10 8 10 11 0 2 -4 4 -10 4 -5 0 -10
-5 -10 -11z"/>
<path d="M1175 1219 c-18 -7 -17 -8 5 -7 14 0 34 -3 45 -7 24 -10 18 -2 -10
12 -11 6 -29 7 -40 2z"/>
<path d="M2507 1219 c7 -7 15 -10 18 -7 3 3 -2 9 -12 12 -14 6 -15 5 -6 -5z"/>
<path d="M822 1160 c-7 -11 -10 -20 -6 -20 7 0 34 27 34 34 0 13 -16 5 -28
-14z"/>
<path d="M3227 1144 c-16 -19 -27 -34 -24 -34 6 0 67 59 67 65 0 13 -18 0 -43
-31z"/>
<path d="M1335 1150 c-3 -5 -1 -10 4 -10 6 0 11 5 11 10 0 6 -2 10 -4 10 -3 0
-8 -4 -11 -10z"/>
<path d="M2354 1145 c-18 -14 -18 -14 4 -8 12 3 22 9 22 14 0 12 -3 11 -26 -6z"/>
<path d="M1285 1139 c-11 -17 1 -21 15 -4 8 9 8 15 2 15 -6 0 -14 -5 -17 -11z"/>
<path d="M1357 1134 c-11 -11 3 -24 18 -18 8 4 12 10 9 15 -6 11 -18 12 -27 3z"/>
<path d="M1305 1120 c-3 -6 1 -7 9 -4 18 7 21 14 7 14 -6 0 -13 -4 -16 -10z"/>
<path d="M2300 1126 c0 -2 7 -7 16 -10 8 -3 12 -2 9 4 -6 10 -25 14 -25 6z"/>
<path d="M2375 1090 c-16 -16 -25 -30 -21 -30 8 0 22 13 45 43 22 27 7 20 -24
-13z"/>
<path d="M1137 1075 c-11 -16 -13 -23 -5 -20 15 6 42 45 31 45 -5 0 -16 -12
-26 -25z"/>
<path d="M2185 1090 c-3 -5 -1 -10 4 -10 6 0 11 5 11 10 0 6 -2 10 -4 10 -3 0
-8 -4 -11 -10z"/>
<path d="M1730 1080 c19 -4 29 -8 21 -9 -8 0 -12 -3 -9 -6 3 -3 13 -2 22 1 25
10 0 24 -39 23 -30 -2 -30 -2 5 -9z"/>
<path d="M2035 1080 c-3 -6 1 -7 9 -4 18 7 21 14 7 14 -6 0 -13 -4 -16 -10z"/>
<path d="M1873 1063 c9 -2 23 -2 30 0 6 3 -1 5 -18 5 -16 0 -22 -2 -12 -5z"/>
<path d="M2001 1061 c-8 -6 -9 -11 -3 -15 6 -3 14 -1 17 5 9 14 2 20 -14 10z"/>
<path d="M1802 1051 c-9 -5 -4 -8 16 -7 17 1 28 4 25 9 -6 9 -25 9 -41 -2z"/>
<path d="M1357 1039 c7 -7 15 -10 18 -7 3 3 -2 9 -12 12 -14 6 -15 5 -6 -5z"/>
<path d="M1510 1040 c-8 -5 -10 -10 -5 -10 6 0 17 5 25 10 8 5 11 10 5 10 -5
0 -17 -5 -25 -10z"/>
<path d="M1716 1041 c-4 -5 3 -7 14 -4 23 6 26 13 6 13 -8 0 -17 -4 -20 -9z"/>
<path d="M2325 1040 c-3 -6 1 -7 9 -4 18 7 21 14 7 14 -6 0 -13 -4 -16 -10z"/>
<path d="M1045 1029 c-11 -16 -1 -19 13 -3 7 8 8 14 3 14 -5 0 -13 -5 -16 -11z"/>
<path d="M1068 1006 c-19 -14 -23 -26 -10 -26 4 0 13 9 20 20 14 23 13 24 -10
6z"/>
<path d="M1565 1000 c-10 -11 -15 -20 -11 -20 11 0 39 30 34 36 -3 2 -13 -5
-23 -16z"/>
<path d="M1437 973 c-4 -3 -7 -11 -7 -17 0 -6 5 -5 12 2 6 6 9 14 7 17 -3 3
-9 2 -12 -2z"/>
<path d="M2574 956 c-10 -8 -17 -16 -14 -19 3 -2 14 4 24 14 23 22 18 25 -10
5z"/>
<path d="M2241 944 c0 -11 3 -14 6 -6 3 7 2 16 -1 19 -3 4 -6 -2 -5 -13z"/>
<path d="M2285 930 c-3 -6 1 -7 9 -4 18 7 21 14 7 14 -6 0 -13 -4 -16 -10z"/>
<path d="M2624 919 c-19 -22 -19 -22 4 -8 12 8 22 17 22 21 0 12 -6 9 -26 -13z"/>
<path d="M2232 890 c-12 -19 -11 -20 8 -8 11 7 20 16 20 20 0 15 -15 8 -28
-12z"/>
<path d="M1130 885 c-11 -13 -10 -14 4 -9 9 3 16 10 16 15 0 13 -6 11 -20 -6z"/>
<path d="M3165 890 c-3 -5 -1 -10 4 -10 6 0 11 5 11 10 0 6 -2 10 -4 10 -3 0
-8 -4 -11 -10z"/>
<path d="M2636 877 c3 -10 9 -15 12 -12 3 3 0 11 -7 18 -10 9 -11 8 -5 -6z"/>
<path d="M2150 863 c0 -20 -59 -75 -72 -67 -7 4 -10 4 -6 -1 4 -4 3 -14 -3
-22 -9 -9 -8 -13 0 -13 6 0 14 7 17 15 3 8 13 17 22 20 18 5 56 64 47 73 -3 3
-5 1 -5 -5z"/>
<path d="M3116 845 c-9 -26 -7 -32 5 -12 6 10 9 21 6 23 -2 3 -7 -2 -11 -11z"/>
<path d="M2876 803 c-6 -14 -5 -15 5 -6 7 7 10 15 7 18 -3 3 -9 -2 -12 -12z"/>
<path d="M2040 795 c-7 -9 -8 -15 -2 -15 5 0 12 7 16 15 3 8 4 15 2 15 -2 0
-9 -7 -16 -15z"/>
<path d="M2916 801 c-4 -5 3 -7 14 -4 23 6 26 13 6 13 -8 0 -17 -4 -20 -9z"/>
<path d="M2340 769 c0 -5 5 -7 10 -4 6 3 10 8 10 11 0 2 -4 4 -10 4 -5 0 -10
-5 -10 -11z"/>
<path d="M3036 765 c-9 -26 -7 -32 5 -12 6 10 9 21 6 23 -2 3 -7 -2 -11 -11z"/>
<path d="M2139 753 c-13 -16 -12 -17 4 -4 16 13 21 21 13 21 -2 0 -10 -8 -17
-17z"/>
<path d="M1888 729 c-10 -10 -15 -19 -10 -19 10 1 42 26 42 34 0 11 -15 5 -32
-15z"/>
<path d="M2030 735 c0 -8 -4 -15 -8 -15 -5 0 -40 -32 -78 -71 -38 -39 -91 -94
-119 -122 -83 -85 2 -10 125 110 71 70 108 113 98 113 -10 0 -18 -7 -18 -15z"/>
<path d="M2270 705 c-13 -14 -21 -27 -18 -30 3 -4 14 5 25 18 10 13 25 26 33
30 13 5 13 6 -1 6 -8 1 -26 -10 -39 -24z"/>
<path d="M2790 720 c-9 -6 -10 -10 -3 -10 6 0 15 5 18 10 8 12 4 12 -15 0z"/>
<path d="M375 690 c-16 -16 -25 -30 -21 -30 7 0 56 49 56 56 0 8 -8 3 -35 -26z"/>
<path d="M335 700 c-3 -5 -1 -10 4 -10 6 0 11 5 11 10 0 6 -2 10 -4 10 -3 0
-8 -4 -11 -10z"/>
<path d="M1935 685 c-16 -13 -25 -24 -19 -25 6 0 21 11 34 25 30 32 24 32 -15
0z"/>
<path d="M2053 680 c-13 -10 -23 -23 -23 -30 0 -6 12 0 27 14 32 30 28 43 -4
16z"/>
<path d="M2749 687 c-9 -7 -22 -23 -29 -37 -12 -25 -12 -25 6 -5 45 48 55 67
23 42z"/>
<path d="M385 650 c-3 -5 -1 -10 4 -10 6 0 11 5 11 10 0 6 -2 10 -4 10 -3 0
-8 -4 -11 -10z"/>
<path d="M325 640 c-3 -6 1 -7 9 -4 18 7 21 14 7 14 -6 0 -13 -4 -16 -10z"/>
<path d="M1357 635 c3 -8 9 -12 14 -9 12 7 11 11 -5 17 -10 4 -13 1 -9 -8z"/>
<path d="M1885 639 c-11 -16 -1 -19 13 -3 7 8 8 14 3 14 -5 0 -13 -5 -16 -11z"/>
<path d="M3250 640 c-8 -5 -10 -10 -5 -10 6 0 17 5 25 10 8 5 11 10 5 10 -5 0
-17 -5 -25 -10z"/>
<path d="M1992 620 c-7 -11 -9 -20 -4 -20 4 0 13 9 20 20 7 11 9 20 4 20 -4 0
-13 -9 -20 -20z"/>
<path d="M3555 620 c-3 -5 -1 -10 4 -10 6 0 11 5 11 10 0 6 -2 10 -4 10 -3 0
-8 -4 -11 -10z"/>
<path d="M1849 603 c-13 -16 -12 -17 4 -4 16 13 21 21 13 21 -2 0 -10 -8 -17
-17z"/>
<path d="M2170 605 c-7 -8 -8 -15 -2 -15 5 0 15 7 22 15 7 8 8 15 2 15 -5 0
-15 -7 -22 -15z"/>
<path d="M2295 610 c-3 -5 -1 -10 4 -10 6 0 11 5 11 10 0 6 -2 10 -4 10 -3 0
-8 -4 -11 -10z"/>
<path d="M1925 545 c-28 -25 -53 -45 -56 -45 -3 0 -6 -6 -6 -14 0 -9 17 1 41
24 23 21 52 48 66 59 14 11 20 20 15 21 -6 0 -33 -20 -60 -45z"/>
<path d="M2140 560 c-9 -6 -10 -10 -3 -10 6 0 15 5 18 10 8 12 4 12 -15 0z"/>
<path d="M2628 563 c7 -3 16 -2 19 1 4 3 -2 6 -13 5 -11 0 -14 -3 -6 -6z"/>
<path d="M1869 533 c-13 -17 -13 -17 6 -3 11 8 22 16 24 17 2 2 0 3 -6 3 -6 0
-17 -8 -24 -17z"/>
<path d="M2156 535 c-9 -26 -7 -32 5 -12 6 10 9 21 6 23 -2 3 -7 -2 -11 -11z"/>
<path d="M2205 530 c-3 -5 -2 -10 4 -10 5 0 13 5 16 10 3 6 2 10 -4 10 -5 0
-13 -4 -16 -10z"/>
<path d="M2150 485 c-7 -9 -8 -15 -2 -15 5 0 12 7 16 15 3 8 4 15 2 15 -2 0
-9 -7 -16 -15z"/>
<path d="M319 417 c-41 -40 -80 -81 -88 -92 -8 -11 7 1 33 28 27 26 55 53 64
60 23 17 77 77 70 77 -3 0 -39 -33 -79 -73z"/>
<path d="M2095 430 c-3 -5 -1 -10 4 -10 6 0 11 5 11 10 0 6 -2 10 -4 10 -3 0
-8 -4 -11 -10z"/>
<path d="M2156 413 c-6 -14 -5 -15 5 -6 7 7 10 15 7 18 -3 3 -9 -2 -12 -12z"/>
<path d="M2020 400 c-9 -6 -10 -10 -3 -10 6 0 15 5 18 10 8 12 4 12 -15 0z"/>
<path d="M2755 400 c-3 -6 1 -7 9 -4 18 7 21 14 7 14 -6 0 -13 -4 -16 -10z"/>
<path d="M1925 389 c-11 -16 -1 -19 13 -3 7 8 8 14 3 14 -5 0 -13 -5 -16 -11z"/>
<path d="M1990 360 c-6 -11 -8 -20 -6 -20 3 0 10 9 16 20 6 11 8 20 6 20 -3 0
-10 -9 -16 -20z"/>
<path d="M2716 365 c-9 -26 -7 -32 5 -12 6 10 9 21 6 23 -2 3 -7 -2 -11 -11z"/>
<path d="M2110 360 c-9 -6 -10 -10 -3 -10 6 0 15 5 18 10 8 12 4 12 -15 0z"/>
<path d="M2395 349 c-4 -6 -5 -12 -2 -15 2 -3 7 2 10 11 7 17 1 20 -8 4z"/>
<path d="M2076 335 c-9 -26 -7 -32 5 -12 6 10 9 21 6 23 -2 3 -7 -2 -11 -11z"/>
<path d="M1964 318 c10 -6 22 -6 26 -2 5 5 -3 10 -18 11 -22 1 -24 0 -8 -9z"/>
<path d="M2107 310 c-9 -11 -13 -20 -8 -20 4 0 16 9 26 20 10 11 14 20 9 20
-5 0 -17 -9 -27 -20z"/>
<path d="M1845 309 c-11 -16 -1 -19 13 -3 7 8 8 14 3 14 -5 0 -13 -5 -16 -11z"/>
<path d="M1916 293 c-6 -14 -5 -15 5 -6 7 7 10 15 7 18 -3 3 -9 -2 -12 -12z"/>
<path d="M181 278 c-14 -23 -14 -23 8 -4 22 20 25 26 13 26 -4 0 -13 -10 -21
-22z"/>
<path d="M1941 278 c-14 -23 -14 -23 8 -4 22 20 25 26 13 26 -4 0 -13 -10 -21
-22z"/>
<path d="M2142 254 c-7 -8 -8 -14 -3 -14 10 0 25 19 20 25 -2 1 -10 -3 -17
-11z"/>
<path d="M1036 163 c-6 -14 -5 -15 5 -6 7 7 10 15 7 18 -3 3 -9 -2 -12 -12z"/>
<path d="M1798 140 c-17 -17 -29 -32 -27 -35 3 -2 20 11 38 30 40 43 33 46
-11 5z"/>
<path d="M1543 148 c-31 -40 -27 -50 5 -13 12 14 18 25 13 25 -5 0 -13 -6 -18
-12z"/>
<path d="M1555 110 c-3 -5 -1 -10 4 -10 6 0 11 5 11 10 0 6 -2 10 -4 10 -3 0
-8 -4 -11 -10z"/>
<path d="M1835 79 c-4 -6 -5 -12 -2 -15 2 -3 7 2 10 11 7 17 1 20 -8 4z"/>
<path d="M2200 65 c-7 -9 -8 -15 -2 -15 5 0 12 7 16 15 3 8 4 15 2 15 -2 0 -9
-7 -16 -15z"/>
<path d="M796 43 c-6 -14 -5 -15 5 -6 7 7 10 15 7 18 -3 3 -9 -2 -12 -12z"/>
<path d="M1306 44 c-5 -14 -4 -15 9 -4 17 14 19 20 6 20 -5 0 -12 -7 -15 -16z"/>
<path d="M2265 40 c-10 -11 -14 -20 -9 -20 5 0 15 9 22 20 7 11 11 20 9 20 -2
0 -12 -9 -22 -20z"/>
<path d="M1340 35 c-8 -9 -8 -15 -2 -15 12 0 26 19 19 26 -2 2 -10 -2 -17 -11z"/>
<path d="M2445 30 c-3 -5 -1 -10 4 -10 6 0 11 5 11 10 0 6 -2 10 -4 10 -3 0
-8 -4 -11 -10z"/>
</g>
</svg>
