<?xml version="1.0" encoding="UTF-8" standalone="no"?>
<!DOCTYPE svg PUBLIC "-//W3C//DTD SVG 1.1//EN" "http://www.w3.org/Graphics/SVG/1.1/DTD/svg11.dtd">
<svg width="100%" height="100%" viewBox="0 0 2481 3508" version="1.1" xmlns="http://www.w3.org/2000/svg" xmlns:xlink="http://www.w3.org/1999/xlink" xml:space="preserve" xmlns:serif="http://www.serif.com/" style="fill-rule:evenodd;clip-rule:evenodd;stroke-linecap:round;stroke-linejoin:round;stroke-miterlimit:1.5;">
    <g transform="matrix(0.170637,0.10673,-0.10673,0.170637,1186.15748,1818.133466)">
        <g transform="matrix(1,0,0,1,-5625,-7500)">
            <g transform="matrix(4.166667,0,0,4.166667,0,0)">
                <path d="M1350,1460L1350,2232L1555,2166L1350,1875L1350,1754L1454,1754L1350,1754L1350,1597C1350,1597 1659.738,1593.442 1733.363,1592.766C1675.619,1569.287 1656.672,1563.382 1653.846,1449C1610.261,1541.956 1598.837,1506.949 1598.837,1506.949C1598.837,1506.949 1589.775,1501.42 1561.715,1415.332C1536.958,1504.498 1514.977,1507.869 1514.977,1507.869C1514.977,1507.869 1485.436,1508.051 1468.417,1402.197C1432.649,1472.8 1446.37,1445.669 1431.634,1455.303C1413.252,1467.32 1349.999,1460 1349.999,1460C1349.999,1460 1385.652,1251.273 1409.208,1199C1388.365,1175.641 1349.999,1143 1349.999,1143" style="fill:rgb(235,235,235);fill-opacity:0;stroke:black;stroke-width:10.42px;"/>
                <path d="M1350,2008.562L1468.418,2193.875" style="fill:none;stroke:black;stroke-width:10.42px;"/>
            </g>
            <g transform="matrix(4.166667,0,0,4.166667,0,0)">
                <path d="M1350,1460L1350,2232L1145,2166L1350,1875L1350,1754L1246,1754L1350,1754L1350,1597C1350,1597 1040.262,1593.442 966.637,1592.766C1024.381,1569.287 1043.328,1563.382 1046.154,1449C1089.739,1541.956 1101.163,1506.949 1101.163,1506.949C1101.163,1506.949 1110.225,1501.42 1138.285,1415.332C1163.042,1504.498 1185.023,1507.869 1185.023,1507.869C1185.023,1507.869 1214.564,1508.051 1231.583,1402.197C1267.351,1472.8 1253.63,1445.669 1268.366,1455.303C1286.748,1467.32 1350.001,1460 1350.001,1460C1350.001,1460 1313.557,1243.273 1290.001,1191C1310.844,1167.641 1350.001,1143 1350.001,1143" style="fill:rgb(235,235,235);fill-opacity:0;stroke:black;stroke-width:10.42px;"/>
                <path d="M1350,2008.562L1231.582,2193.875" style="fill:none;stroke:black;stroke-width:10.42px;"/>
            </g>
        </g>
    </g>
    <g transform="matrix(1,0,0,1,-77.34252,-125.562992)">
        <g transform="matrix(0.456283,0.889835,-0.889835,0.456283,2275.943763,551.353564)">
            <text x="686.806px" y="2138.054px" style="font-family:'Herculanum';font-size:200px;">f</text>
        </g>
        <g transform="matrix(0.64053,0.767933,-0.767933,0.64053,1991.063141,240.0828)">
            <text x="739.088px" y="2246.789px" style="font-family:'Herculanum';font-size:200px;">r</text>
        </g>
        <g transform="matrix(0.757212,0.653169,-0.653169,0.757212,1745.218049,27.638183)">
            <text x="835.432px" y="2361.387px" style="font-family:'Herculanum';font-size:200px;">e</text>
        </g>
        <g transform="matrix(0.848223,0.52964,-0.52964,0.848223,1425.830637,-115.722479)">
            <text x="914.827px" y="2429.917px" style="font-family:'Herculanum';font-size:200px;">e</text>
        </g>
        <g transform="matrix(0.911543,0.411205,-0.411205,0.911543,1110.244974,-192.749245)">
            <text x="1003.133px" y="2484.188px" style="font-family:'Herculanum';font-size:200px;">•</text>
        </g>
        <g transform="matrix(0.960798,0.277248,-0.277248,0.960798,741.220416,-201.495663)">
            <text x="1083.134px" y="2520.338px" style="font-family:'Herculanum';font-size:200px;">t</text>
        </g>
        <g transform="matrix(0.996184,0.087281,-0.087281,0.996184,227.248433,-94.081746)">
            <text x="1189.486px" y="2551.634px" style="font-family:'Herculanum';font-size:200px;">h</text>
        </g>
        <g transform="matrix(0.993827,-0.110937,0.110937,0.993827,-275.92798,164.573974)">
            <text x="1340.947px" y="2561.858px" style="font-family:'Herculanum';font-size:200px;">e</text>
        </g>
        <g transform="matrix(0.969942,-0.243337,0.243337,0.969942,-577.031816,427.937784)">
            <text x="1443.679px" y="2549.663px" style="font-family:'Herculanum';font-size:200px;">•</text>
        </g>
        <g transform="matrix(0.893822,-0.448422,0.448422,0.893822,-972.2359,957.124341)">
            <text x="1534.994px" y="2531.585px" style="font-family:'Herculanum';font-size:200px;">m</text>
        </g>
        <g transform="matrix(0.738411,-0.674351,0.674351,0.738411,-1191.379802,1795.667745)">
            <text x="1718.84px" y="2433.465px" style="font-family:'Herculanum';font-size:200px;">a</text>
        </g>
        <g transform="matrix(0.567382,-0.823455,0.823455,0.567382,-1118.913016,2517.474162)">
            <text x="1836.45px" y="2323.618px" style="font-family:'Herculanum';font-size:200px;">n</text>
        </g>
        <g transform="matrix(0.379557,-0.925168,0.925168,0.379557,-831.9913,3138.877409)">
            <text x="1924.26px" y="2189.747px" style="font-family:'Herculanum';font-size:200px;">y</text>
        </g>
        <g transform="matrix(0.613814,-0.789451,0.789451,0.613814,-930.18254,1262.693933)">
            <text x="825.523px" y="1582.097px" style="font-family:'Herculanum';font-size:200px;">h</text>
        </g>
        <g transform="matrix(0.777778,-0.628539,0.628539,0.777778,-729.000609,896.702829)">
            <text x="903.629px" y="1479.314px" style="font-family:'Herculanum';font-size:200px;">u</text>
        </g>
        <g transform="matrix(0.896538,-0.442967,0.442967,0.896538,-514.916205,588.961267)">
            <text x="1003.345px" y="1396.774px" style="font-family:'Herculanum';font-size:200px;">n</text>
        </g>
        <g transform="matrix(0.967814,-0.251668,0.251668,0.967814,-300.364695,326.754422)">
            <text x="1127.278px" y="1337.665px" style="font-family:'Herculanum';font-size:200px;">t</text>
        </g>
        <g transform="matrix(0.994259,-0.107001,0.107001,0.994259,-133.700974,137.691134)">
            <text x="1216.278px" y="1314.791px" style="font-family:'Herculanum';font-size:200px;">•</text>
        </g>
        <g transform="matrix(0.999442,0.033391,-0.033391,0.999442,44.324474,-42.290524)">
            <text x="1288.338px" y="1305.927px" style="font-family:'Herculanum';font-size:200px;">t</text>
        </g>
        <g transform="matrix(0.974519,0.224305,-0.224305,0.974519,328.13423,-275.920317)">
            <text x="1378.504px" y="1306.292px" style="font-family:'Herculanum';font-size:200px;">h</text>
        </g>
        <g transform="matrix(0.909646,0.415385,-0.415385,0.909646,691.15267,-504.538213)">
            <text x="1505.33px" y="1336.445px" style="font-family:'Herculanum';font-size:200px;">e</text>
        </g>
        <g transform="matrix(0.845819,0.53347,-0.53347,0.845819,977.189442,-634.606375)">
            <text x="1586.471px" y="1373.246px" style="font-family:'Herculanum';font-size:200px;">•</text>
        </g>
        <g transform="matrix(0.75183,0.659357,-0.659357,0.75183,1338.668931,-737.009649)">
            <text x="1648.405px" y="1409.832px" style="font-family:'Herculanum';font-size:200px;">f</text>
        </g>
        <g transform="matrix(0.636515,0.771265,-0.771265,0.636515,1763.517245,-793.325058)">
            <text x="1723.421px" y="1474.305px" style="font-family:'Herculanum';font-size:200px;">e</text>
        </g>
        <g transform="matrix(0.451894,0.892072,-0.892072,0.451894,2347.284686,-748.952143)">
            <text x="1783.122px" y="1535.688px" style="font-family:'Herculanum';font-size:200px;">w</text>
        </g>
    </g>
    <g transform="matrix(1.296135,0,0,1.36379,-496.015798,-668.154363)">
        <path d="M1339.5,1185C1673.685,1185 1945,1449.818 1945,1776C1945,2102.182 1673.685,2367 1339.5,2367C1005.315,2367 734,2102.182 734,1776C734,1449.818 1005.315,1185 1339.5,1185ZM1339.5,1404.595C1549.513,1404.595 1720.018,1571.016 1720.018,1776C1720.018,1980.984 1549.513,2147.405 1339.5,2147.405C1129.487,2147.405 958.982,1980.984 958.982,1776C958.982,1571.016 1129.487,1404.595 1339.5,1404.595Z" style="fill:rgb(235,235,235);fill-opacity:0;stroke:rgb(4,0,0);stroke-width:9.4px;"/>
    </g>
</svg>
