<?xml version="1.0" standalone="no"?>
<!DOCTYPE svg PUBLIC "-//W3C//DTD SVG 20010904//EN"
 "http://www.w3.org/TR/2001/REC-SVG-20010904/DTD/svg10.dtd">
<svg version="1.0" xmlns="http://www.w3.org/2000/svg"
 width="187.000000pt" height="160.000000pt" viewBox="0 0 187.000000 160.000000"
 preserveAspectRatio="xMidYMid meet">
<g transform="translate(0.000000,160.000000) scale(0.100000,-0.100000)"
fill="#000000" stroke="none">
<path d="M960 1550 c-23 -28 -46 -50 -51 -50 -6 0 -33 16 -62 35 -39 27 -54
32 -60 23 -4 -7 -21 -36 -37 -65 l-30 -52 -70 24 c-48 16 -70 20 -71 12 -1
-24 -10 -63 -20 -95 l-11 -34 -69 4 -69 3 0 -71 0 -72 -65 -12 c-54 -10 -65
-15 -60 -29 9 -31 33 -126 32 -127 -1 -1 -30 -16 -64 -33 l-61 -33 18 -31 c11
-18 27 -45 36 -62 l17 -29 -52 -47 -52 -46 51 -46 c27 -25 50 -48 50 -51 0 -4
-16 -31 -37 -61 -20 -31 -34 -56 -32 -58 2 -1 30 -16 61 -32 32 -17 58 -35 58
-41 0 -11 -23 -87 -34 -115 -5 -11 -1 -18 13 -22 30 -7 26 -20 -12 -37 -17 -8
-32 -21 -32 -28 0 -7 -15 -21 -32 -32 -18 -11 -33 -25 -33 -31 0 -6 -11 -20
-25 -31 -14 -11 -25 -25 -25 -33 0 -7 -14 -18 -30 -25 -17 -7 -30 -16 -30 -21
0 -5 -16 -15 -36 -24 -39 -16 -41 -38 -5 -43 19 -3 20 -6 9 -19 -7 -9 -8 -14
-3 -12 6 3 32 15 58 27 55 25 78 29 59 10 -7 -7 -12 -18 -12 -26 0 -22 83 -9
156 23 32 15 102 42 154 60 104 37 105 36 115 -27 4 -21 10 -36 15 -33 4 3 36
14 69 24 l62 19 19 -37 c18 -36 47 -51 47 -25 0 7 -4 11 -9 8 -4 -3 -8 0 -8 5
0 14 17 14 25 1 3 -5 13 -6 22 -3 13 5 15 2 9 -12 -7 -18 -6 -18 13 -1 11 10
22 13 25 8 3 -6 0 -13 -6 -15 -9 -4 -8 -6 3 -6 8 -1 20 4 27 11 9 9 15 9 24 0
16 -16 28 -15 28 3 0 9 -9 15 -23 15 -38 0 -162 38 -231 71 -69 33 -89 50 -66
57 7 3 30 20 51 40 29 25 42 32 52 24 8 -7 18 -7 27 -2 25 16 40 11 51 -14 16
-33 76 -49 108 -27 22 14 25 14 41 -7 25 -30 90 -31 108 -1 12 19 15 20 37 5
33 -22 80 -11 106 25 17 24 23 27 45 18 33 -12 91 21 96 54 2 16 11 23 33 25
28 4 108 62 85 62 -6 0 -10 10 -8 23 2 15 11 23 28 25 34 4 60 51 53 95 -4 28
-1 35 19 44 33 15 50 70 30 101 -13 21 -13 25 7 46 12 13 21 36 22 57 0 19 4
42 7 52 7 15 12 13 42 -18 l35 -36 -37 -31 c-21 -16 -38 -37 -38 -45 0 -8 11
-33 25 -57 l24 -42 -33 -18 c-18 -9 -40 -18 -50 -20 -18 -2 -36 -23 -36 -41 0
-5 4 -4 9 4 6 9 11 10 15 2 4 -6 5 -11 2 -11 -3 0 1 -19 9 -41 8 -23 15 -43
15 -44 0 -1 -18 -5 -39 -9 -22 -3 -47 -9 -57 -13 -13 -5 -15 -3 -9 8 8 12 6
12 -9 0 -9 -8 -13 -17 -8 -20 4 -3 10 -30 11 -59 l3 -53 -29 5 c-66 11 -98 10
-95 -2 1 -7 -3 -33 -9 -57 -10 -42 -13 -44 -38 -39 -14 4 -41 13 -60 20 -34
14 -45 12 -47 -9 -3 -36 -6 -44 -23 -66 l-18 -23 -53 37 c-29 20 -50 33 -47
27 4 -5 -11 -26 -33 -47 l-38 -38 -34 39 c-18 21 -32 41 -31 45 3 9 -64 -28
-90 -49 -9 -9 -19 -13 -20 -11 -21 26 -53 99 -44 99 7 0 6 4 -3 10 -8 5 -17 5
-20 1 -3 -4 -29 -16 -58 -26 -66 -21 -63 -30 4 -10 27 8 52 15 56 15 4 0 19
-22 33 -50 14 -27 28 -50 30 -50 8 0 46 22 73 42 23 17 24 17 66 -29 l42 -46
38 46 37 46 44 -30 c23 -16 47 -29 53 -29 5 0 20 21 33 48 13 26 25 49 26 50
1 2 26 -5 56 -17 46 -17 57 -18 67 -7 6 8 10 18 8 22 -1 5 1 26 5 46 l8 38 59
-7 c58 -6 60 -5 61 18 4 113 -1 103 52 111 27 3 51 9 53 11 3 2 -2 30 -11 62
-8 32 -14 59 -12 60 1 1 23 14 50 29 26 15 47 29 47 32 0 3 -12 26 -26 50
l-27 45 42 42 41 43 -40 40 -41 40 30 44 c17 25 27 48 23 51 -4 3 -25 16 -47
28 -37 21 -25 7 20 -23 19 -13 19 -14 -8 -54 -15 -23 -27 -47 -28 -54 0 -7 -5
-4 -10 7 -7 15 -7 12 -3 -13 6 -32 5 -33 -15 -23 -25 14 -26 20 -5 49 20 29
10 82 -16 82 -31 0 -17 26 38 69 29 23 52 47 52 53 0 23 17 -6 39 -64 45 -125
48 -317 6 -444 -69 -204 -210 -367 -390 -449 -92 -42 -201 -68 -292 -69 -43
-1 -72 -5 -70 -11 4 -12 118 -13 135 -1 8 6 17 5 24 -2 14 -14 32 -16 24 -3
-3 5 1 12 10 15 9 4 13 2 8 -5 -4 -8 0 -7 15 0 11 7 21 8 21 4 0 -4 5 -2 12 5
7 7 19 12 27 12 10 0 12 -3 6 -8 -15 -11 -17 -32 -2 -32 7 0 21 16 30 35 9 19
21 35 25 35 5 0 35 -9 67 -20 32 -11 62 -20 66 -20 4 0 10 24 14 53 11 80 13
82 92 79 l68 -4 -3 70 -4 70 52 11 c28 6 60 11 72 11 14 0 18 5 14 15 -16 44
-37 126 -33 132 3 5 32 21 64 38 l60 29 -39 61 -40 60 54 48 53 48 -47 44
c-27 24 -48 48 -48 54 0 6 16 35 35 63 l36 51 -63 35 c-35 19 -64 36 -65 36
-7 5 54 168 96 256 28 58 55 130 62 160 6 30 15 73 19 95 5 21 7 42 4 45 -3 3
-20 -11 -36 -30 -30 -35 -30 -35 -24 -7 9 40 -12 34 -30 -8 -8 -20 -18 -34
-23 -31 -9 6 -71 -52 -71 -66 0 -6 -6 -8 -14 -5 -8 3 -20 -1 -26 -9 -7 -8 -18
-14 -25 -14 -7 0 -18 -7 -25 -15 -7 -8 -16 -13 -20 -10 -4 3 -20 -7 -36 -22
-16 -15 -41 -28 -56 -30 -25 -3 -27 0 -39 67 -7 39 -13 70 -14 70 -1 0 -28 -9
-61 -20 -32 -11 -64 -20 -71 -20 -6 0 -25 29 -42 65 l-31 66 -59 -41 -59 -40
-50 55 -50 55 -42 -50z m55 -3 c1 -7 6 -11 11 -10 6 1 11 -4 11 -12 0 -10 -5
-11 -17 -5 -11 6 -21 5 -28 -2 -5 -5 -15 -7 -21 -3 -17 10 -3 25 16 18 11 -4
14 -3 9 5 -4 7 -4 17 -1 23 8 12 20 3 20 -14z m831 -4 c-2 -10 -10 -45 -16
-78 -15 -77 -152 -370 -193 -414 -39 -41 -159 -122 -247 -166 -79 -40 -167
-107 -182 -140 -7 -17 -7 -32 0 -54 6 -17 9 -31 7 -31 -9 0 -45 80 -45 98 0
11 -7 25 -16 33 -13 11 -14 9 -8 -17 9 -37 53 -121 73 -137 12 -10 13 -9 7 3
-4 8 2 4 13 -10 12 -14 26 -43 32 -65 6 -22 15 -49 19 -61 5 -11 4 -27 -1 -35
-5 -8 -9 -11 -9 -6 0 17 -2 23 -12 35 -6 6 -15 12 -21 12 -6 0 -2 -7 9 -15 45
-34 -6 -11 -90 42 -106 66 -116 73 -95 73 9 0 44 -18 79 -41 34 -22 64 -38 67
-36 6 6 -47 47 -61 47 -7 0 -12 9 -12 20 0 14 5 19 16 15 8 -3 1 8 -17 25 -34
32 -43 36 -43 20 0 -5 -40 -48 -90 -96 -49 -47 -106 -112 -126 -143 -20 -31
-55 -70 -77 -86 -22 -17 -68 -54 -101 -84 -84 -74 -116 -92 -231 -131 -55 -18
-128 -46 -163 -62 -111 -50 -184 -62 -154 -25 7 8 8 18 4 22 -4 5 -1 5 5 1 7
-4 21 -2 30 3 17 10 17 10 -1 11 -18 0 -18 1 -1 20 10 11 28 20 41 20 13 0 26
5 30 11 5 9 -1 10 -20 5 -15 -4 -26 -2 -26 4 0 10 42 34 99 56 l36 13 -43 -6
c-28 -4 -42 -2 -42 6 0 12 142 81 166 81 8 0 14 5 14 11 0 7 -7 8 -18 3 -9 -4
-31 -7 -48 -6 -18 1 -51 -5 -75 -13 -41 -15 -62 -13 -43 4 10 9 83 33 149 49
22 6 54 13 70 17 l30 8 -25 7 c-25 7 -24 8 12 24 46 20 46 20 44 0 0 -9 5 -18
12 -20 7 -1 8 0 2 3 -19 9 -10 23 18 24 17 1 21 3 9 6 -26 7 -15 27 19 34 16
4 23 7 16 8 -7 0 -10 6 -7 11 4 6 16 8 28 4 20 -6 21 -5 7 11 -14 17 -12 18
33 11 29 -5 47 -3 47 3 0 5 -14 11 -32 13 -17 2 -34 9 -36 17 -4 11 5 12 42 7
30 -5 46 -4 46 3 0 6 -9 11 -19 11 -26 0 -51 10 -51 21 0 13 61 11 99 -2 18
-6 35 -9 38 -5 3 3 -7 8 -23 12 -18 3 -34 15 -41 31 -11 24 -11 25 12 20 27
-5 34 7 10 17 -8 3 -15 10 -15 16 0 8 6 7 20 0 19 -10 20 -10 8 9 -16 26 -6
36 24 20 22 -12 23 -11 5 8 -16 19 -16 20 1 36 10 10 23 17 29 17 5 0 10 14
11 30 0 17 -4 28 -9 25 -5 -4 -9 -11 -9 -16 0 -5 -18 -29 -40 -51 -22 -23 -40
-48 -40 -55 0 -7 -8 -20 -19 -29 -10 -9 -17 -26 -15 -40 2 -20 -2 -24 -22 -24
-14 0 -27 -7 -31 -18 -4 -9 -13 -22 -21 -28 -8 -6 -12 -16 -8 -22 4 -7 1 -12
-9 -12 -9 0 -13 -4 -10 -10 3 -5 2 -10 -4 -10 -5 0 -16 -6 -23 -13 -41 -40
-74 -57 -107 -57 -20 0 -51 -4 -69 -9 -17 -5 -32 -6 -32 -2 0 15 30 34 83 53
43 15 46 18 17 14 -31 -4 -32 -4 -12 6 12 6 22 17 22 25 0 7 8 17 17 20 22 9
173 160 173 174 0 9 26 39 90 105 28 30 65 35 83 13 9 -9 13 -19 11 -22 -2 -2
7 -9 21 -15 14 -6 25 -8 25 -3 0 5 -7 11 -15 15 -8 3 -15 13 -15 21 0 14 2 15
21 1 12 -8 28 -12 35 -9 8 3 14 0 14 -7 0 -6 -4 -8 -10 -5 -20 13 -9 -7 27
-45 20 -22 43 -40 52 -39 11 0 12 2 3 6 -7 3 -19 18 -28 34 -8 17 -20 27 -26
23 -6 -4 -8 -3 -5 3 6 10 -37 93 -78 150 -19 28 -59 32 -51 6 18 -63 18 -70
-6 -77 -36 -9 -188 -7 -188 3 0 6 15 12 33 14 28 3 27 4 -10 5 -31 2 -45 7
-53 22 -15 28 -5 40 33 41 29 2 30 2 5 6 -34 5 -57 30 -35 39 9 3 14 11 11 17
-6 18 55 87 77 87 10 0 37 -18 59 -40 22 -22 40 -36 40 -32 0 5 -21 29 -46 54
l-46 45 33 23 c29 22 33 22 44 7 17 -23 28 -21 16 2 -14 25 5 41 44 38 26 -2
32 -8 47 -52 l17 -50 2 40 c1 22 1 44 0 49 -1 5 5 6 14 3 8 -4 15 -1 15 5 0 6
3 9 6 6 3 -4 -1 -17 -8 -30 -10 -15 -12 -36 -8 -63 7 -40 7 -40 9 13 1 37 5
52 15 52 11 0 15 -22 18 -96 l3 -96 45 -39 c46 -40 76 -53 47 -21 -10 10 -17
22 -17 25 0 11 38 8 45 -3 3 -6 11 -10 17 -10 6 0 5 7 -4 18 -9 9 -13 23 -11
30 6 14 39 16 48 2 3 -5 11 -10 17 -10 6 0 3 9 -6 19 -21 23 -3 40 21 19 14
-11 15 -10 9 10 -6 18 -4 22 13 22 12 0 21 7 21 15 0 18 31 20 49 3 11 -11 12
-9 6 10 -6 21 -4 23 14 17 15 -4 21 -3 19 7 -2 9 6 12 27 10 18 -1 45 7 66 20
30 19 35 27 28 43 -4 11 -8 14 -8 6 -2 -27 -44 -53 -78 -48 -21 4 -36 1 -44
-9 -6 -8 -18 -14 -25 -14 -8 0 -14 -5 -14 -11 0 -6 -7 -9 -15 -5 -21 8 -45 -3
-45 -21 0 -9 -6 -13 -14 -10 -8 3 -17 -1 -20 -9 -3 -8 -12 -14 -21 -14 -8 0
-15 -4 -15 -10 0 -5 -8 -10 -17 -10 -10 0 -27 -10 -38 -23 -28 -33 -50 -39
-69 -18 -23 25 -20 38 13 52 17 7 32 21 34 31 10 36 106 74 122 48 3 -5 11
-10 17 -10 6 0 4 8 -5 18 -10 10 -17 21 -17 25 0 13 46 31 73 29 16 -2 26 2
23 7 -12 18 15 22 46 7 37 -19 46 -20 30 -4 -17 17 -15 33 3 18 13 -10 15 -9
15 10 0 20 2 21 17 9 15 -12 16 -12 10 4 -8 21 1 67 13 67 4 0 10 -18 14 -40
3 -22 10 -40 15 -40 5 0 5 15 -1 34 -11 36 -3 106 12 106 6 0 10 -22 10 -50 0
-27 3 -50 8 -50 4 0 5 23 4 50 -6 84 10 94 23 15 l12 -70 2 61 c1 45 6 68 22
88 29 37 42 32 24 -10 -16 -39 -21 -149 -7 -158 5 -3 7 17 4 43 -5 53 19 141
44 161 18 16 18 11 -1 -33 -8 -20 -14 -58 -14 -84 1 -30 3 -37 6 -18 9 77 53
188 68 173 3 -3 -3 -38 -14 -79 -27 -95 -19 -102 9 -8 20 65 48 125 56 117 1
-2 -6 -37 -15 -78 -28 -115 -34 -156 -23 -145 6 6 18 51 27 100 21 112 34 155
46 155 6 0 7 -9 3 -22 -4 -13 -8 -46 -9 -73 -1 -28 -8 -61 -15 -74 -6 -13 -7
-21 -2 -17 6 3 23 39 38 79 36 97 75 177 86 177 5 0 7 -8 4 -17z m-1022 -24
c-3 -5 1 -6 9 -3 8 3 19 -2 26 -10 12 -15 7 -16 -52 -7 -5 0 -5 6 -1 13 5 7 3
8 -6 3 -10 -6 -9 -11 6 -23 12 -9 13 -12 4 -9 -8 2 -22 1 -31 -4 -15 -7 -15
-5 0 25 11 23 21 31 33 28 10 -2 15 -8 12 -13z m391 10 c-4 -5 1 -19 11 -30 9
-10 14 -22 11 -26 -4 -3 -7 -1 -7 7 0 10 -3 10 -15 0 -12 -10 -14 -8 -10 9 2
11 -1 24 -7 27 -6 4 -8 3 -5 -2 3 -6 2 -16 -4 -24 -5 -10 -9 -11 -9 -3 0 7 -7
10 -17 6 -10 -3 -3 6 16 21 38 28 46 32 36 15z m585 -9 c0 -5 -3 -10 -7 -10
-5 0 -16 -27 -27 -60 -10 -34 -21 -59 -23 -56 -6 5 15 85 29 114 12 23 28 30
28 12z m-605 -58 c81 -26 150 -59 211 -100 50 -35 51 -36 32 -56 -57 -63 -52
-63 -67 -2 -15 63 -25 67 -88 41 -19 -8 -37 -15 -39 -15 -2 0 -13 19 -25 43
-35 69 -35 69 -85 35 l-46 -31 -43 43 -44 43 -39 -43 -40 -42 -45 31 c-25 17
-48 31 -51 31 -3 0 -19 -27 -36 -59 -16 -33 -35 -61 -42 -64 -9 -4 -9 -6 2 -6
18 -1 35 10 36 24 1 20 35 85 44 85 5 0 26 -11 46 -25 20 -14 40 -25 43 -25 4
0 24 18 46 40 l39 39 34 -39 c18 -22 39 -40 45 -40 7 0 29 11 49 25 20 14 41
25 45 25 4 0 17 -19 27 -43 11 -23 22 -46 24 -51 3 -5 -2 -5 -9 -1 -11 6 -11
5 -3 -4 9 -10 17 -10 32 -2 11 6 38 14 60 20 45 9 42 12 57 -53 4 -19 2 -32
-7 -38 -10 -7 -8 -8 4 -4 35 11 28 -14 -12 -43 l-41 -30 -57 34 c-61 36 -148
62 -225 68 -66 6 -187 -18 -255 -51 -61 -28 -169 -124 -203 -178 -11 -19 -24
-32 -27 -30 -4 2 -7 -7 -7 -20 0 -13 6 -24 13 -24 17 0 12 -32 -5 -38 -7 -2
-13 4 -13 15 0 27 -28 -29 -36 -74 -5 -26 -4 -34 5 -29 6 4 14 0 17 -9 9 -23
-3 -30 -23 -14 -15 12 -16 12 -10 -5 5 -13 1 -27 -14 -43 -13 -12 -17 -23 -11
-23 7 0 12 5 12 12 0 6 3 9 6 6 3 -3 7 -30 9 -59 3 -30 14 -83 25 -118 17 -52
19 -66 8 -72 -21 -14 -24 -11 -38 34 -8 23 -18 45 -23 48 -5 4 -11 37 -13 74
-1 41 -8 71 -15 76 -10 6 -10 11 -1 22 17 20 31 102 20 120 -5 10 -4 19 4 24
21 13 59 103 53 124 -5 14 -1 19 12 19 21 0 73 70 73 98 0 15 5 19 20 15 22
-6 80 37 92 68 4 11 17 18 35 17 37 0 99 27 111 49 8 14 13 15 26 4 19 -16 93
-6 118 16 14 13 17 13 25 -1 6 -11 26 -17 63 -19 50 -2 55 0 58 21 4 27 -3 28
-36 1 l-27 -21 -20 26 c-26 33 -70 34 -102 4 -23 -21 -24 -22 -54 -4 -23 14
-36 16 -59 8 -15 -6 -31 -7 -35 -4 -3 4 -3 0 0 -9 3 -8 -1 -23 -9 -34 -12 -17
-18 -18 -44 -9 -39 15 -72 -3 -86 -47 -10 -29 -16 -34 -43 -34 -42 0 -73 -30
-73 -71 0 -24 -5 -34 -21 -39 -30 -10 -32 -2 -7 30 13 16 17 26 10 21 -9 -5
-12 7 -12 47 l0 54 58 1 c52 1 55 0 38 -13 -11 -8 -15 -15 -9 -15 5 0 18 10
29 22 10 12 13 18 5 13 -11 -6 -13 -4 -8 8 3 8 9 32 13 52 6 34 9 37 34 31 15
-3 41 -8 56 -11 l29 -5 -30 14 c-16 7 -42 16 -57 20 -25 6 -27 3 -43 -49 l-16
-55 -58 0 -59 0 5 -59 c6 -65 12 -60 -81 -75 -16 -3 -30 -7 -32 -9 -2 -2 3
-25 12 -51 9 -26 19 -45 21 -42 3 3 0 19 -6 37 -15 44 -14 55 7 55 9 0 32 4
50 8 l33 8 -24 -49 c-33 -64 -53 -83 -115 -112 -29 -14 -52 -27 -52 -30 0 -3
13 -26 30 -51 l30 -45 -43 -43 -42 -44 43 -38 44 -39 -32 -45 c-18 -24 -29
-49 -26 -55 4 -5 27 -20 51 -32 49 -25 52 -33 30 -85 -8 -19 -14 -35 -14 -37
0 -1 -4 -13 -9 -27 -10 -24 -12 -21 -41 41 -16 36 -33 78 -37 93 -3 15 -13 26
-23 26 -10 0 -12 3 -5 8 6 4 10 18 8 32 -31 245 -2 392 113 567 105 161 285
278 481 313 74 14 249 4 317 -18z m-572 -18 c4 -1 15 -2 25 -3 14 -1 15 -3 2
-10 -8 -6 -18 -7 -22 -5 -5 3 -7 0 -6 -6 2 -6 -7 -18 -19 -27 -22 -15 -22 -14
-13 17 5 18 7 37 3 43 -4 6 -1 7 8 1 8 -5 17 -9 22 -10z m773 -13 c-15 -16
-15 -19 -2 -24 10 -4 13 -1 9 9 -3 7 0 14 6 14 6 0 11 -9 11 -20 0 -24 -8 -25
-38 -4 -27 18 -28 31 -4 37 32 9 35 7 18 -12z m-906 -123 c-12 -10 -29 -18
-37 -18 -8 0 -12 -4 -9 -8 2 -4 0 -14 -5 -22 -7 -11 -9 -5 -7 20 4 41 13 50
51 48 l29 -2 -22 -18z m465 -58 c-3 -5 -13 -10 -21 -10 -8 0 -14 5 -14 10 0 6
9 10 21 10 11 0 17 -4 14 -10z m129 1 c3 -5 0 -11 -8 -14 -15 -6 -26 1 -26 15
0 11 27 10 34 -1z m-254 -36 c-13 -16 -40 -20 -40 -7 0 14 12 22 33 22 16 0
17 -3 7 -15z m345 -22 c36 -15 65 -30 65 -34 0 -18 -37 -17 -93 4 -54 19 -79
22 -194 20 -146 -2 -168 -9 -250 -79 -49 -42 -103 -121 -103 -152 0 -12 -7
-47 -15 -79 -19 -71 -19 -162 -2 -230 24 -91 -9 -100 -38 -11 -50 153 9 357
138 475 128 118 329 153 492 86z m32 11 c-3 -4 -14 -3 -24 0 -15 6 -15 8 -3
16 16 10 39 -4 27 -16z m-837 -30 c0 -12 -14 -34 -22 -34 -5 0 -6 4 -3 10 3 6
-1 7 -10 4 -14 -6 -14 -8 2 -20 12 -9 14 -13 5 -14 -7 0 -10 -4 -7 -10 3 -5 4
-10 1 -10 -2 0 -11 14 -20 30 -8 17 -11 28 -6 25 5 -3 14 1 21 8 11 11 39 19
39 11z m348 -16 c-3 -7 -12 -14 -21 -16 -12 -2 -15 1 -11 12 7 19 38 22 32 4z
m390 -15 c34 -8 65 -19 68 -24 3 -5 -14 -17 -38 -28 -24 -10 -56 -31 -73 -47
-74 -72 -70 -73 -70 22 0 65 -4 87 -15 94 -20 12 45 4 128 -17z m-488 -78 c0
-8 -7 -15 -15 -15 -16 0 -20 12 -8 23 11 12 23 8 23 -8z m-141 -82 c1 -7 -12
-19 -29 -28 -38 -20 -49 -59 -27 -98 16 -28 16 -29 -5 -47 -32 -26 -33 -77 -1
-104 25 -22 25 -22 5 -46 -25 -31 -12 -80 28 -104 26 -15 27 -18 17 -51 -10
-35 -41 -75 -56 -75 -5 0 -1 20 7 44 11 28 19 40 24 33 6 -9 8 -9 8 0 0 6 -27
27 -60 46 l-60 34 26 39 c15 21 30 40 35 42 5 2 9 10 9 18 0 9 -4 13 -8 10 -5
-3 -26 12 -46 33 l-37 38 39 32 c28 22 42 27 45 19 4 -8 6 -7 6 4 1 9 -13 37
-30 62 -17 25 -27 50 -24 56 11 18 85 49 85 37 1 -7 8 4 16 23 15 32 17 33 24
15 5 -11 9 -26 9 -32z m1276 -6 c4 5 5 -2 2 -15 -5 -20 -3 -22 11 -10 15 11
15 11 5 -3 -7 -9 -11 -18 -8 -21 3 -3 -5 -13 -17 -24 l-23 -19 20 24 c17 21
18 23 3 18 -10 -3 -20 -2 -23 3 -4 6 -1 10 5 10 7 0 5 7 -4 16 -9 8 -16 23
-16 31 0 14 2 14 18 0 10 -10 22 -14 27 -10z m-1475 3 c12 -8 12 -10 -4 -16
-14 -5 -15 -9 -4 -15 11 -8 11 -10 -1 -18 -16 -10 -51 -3 -51 11 0 5 6 6 13 2
10 -6 10 -4 0 7 -16 16 -17 29 -2 29 5 0 7 -6 4 -12 -3 -7 0 -5 7 5 15 20 18
20 38 7z m1250 -54 c0 -8 8 -17 17 -20 12 -5 13 -10 5 -18 -15 -15 -3 -111 15
-121 13 -8 12 -11 0 -25 -19 -22 -29 -116 -14 -131 8 -8 8 -11 -2 -11 -16 0
-65 -106 -57 -125 3 -8 0 -15 -7 -15 -14 0 -87 -91 -87 -109 0 -6 -5 -11 -11
-11 -19 0 -99 -63 -99 -78 0 -9 -6 -12 -15 -8 -9 3 -41 -6 -71 -19 -41 -18
-55 -29 -50 -40 3 -8 1 -15 -3 -15 -5 0 -11 5 -13 12 -6 16 -108 12 -136 -6
-7 -4 -19 -3 -26 3 -7 6 -40 11 -74 13 -34 1 -62 5 -62 8 0 3 -23 14 -50 25
-54 21 -58 26 -36 44 11 9 28 7 75 -9 65 -22 96 -26 86 -11 -8 15 15 25 28 12
8 -8 8 -11 -1 -11 -7 0 -12 -4 -12 -10 0 -6 27 -10 60 -10 47 0 58 3 54 14 -7
18 15 31 29 17 8 -8 8 -11 -1 -11 -7 0 -12 -4 -12 -9 0 -14 129 23 183 53 56
30 117 77 117 90 0 4 11 16 24 27 60 47 124 201 127 304 2 73 0 83 -13 81 -7
0 -13 4 -13 9 0 6 6 9 13 9 7 -1 12 6 10 15 -2 10 3 25 10 34 10 12 10 17 1
23 -7 4 -9 3 -5 -4 3 -6 2 -13 -4 -17 -11 -7 -25 39 -15 54 9 16 35 13 35 -3z
m-61 -166 c0 -25 -4 -65 -10 -90 -6 -25 -12 -53 -14 -63 -9 -43 -65 -127 -122
-184 -61 -61 -149 -112 -222 -128 -48 -10 -188 -8 -219 3 -15 6 -36 13 -46 16
-18 6 -18 8 -4 22 13 13 22 14 57 4 57 -15 146 -15 212 0 216 50 369 291 320
503 -7 30 -6 39 8 47 13 7 18 1 28 -38 6 -26 11 -67 12 -92z m-579 110 c0 -11
7 -23 15 -26 8 -4 15 -13 15 -22 0 -12 -3 -13 -11 -5 -6 6 -17 9 -23 7 -7 -3
-11 9 -11 31 0 19 3 35 8 35 4 0 7 -9 7 -20z m507 -140 c-5 -76 -29 -147 -68
-201 -23 -32 -39 -30 -39 5 0 30 -22 83 -48 116 -45 58 -36 100 33 149 43 31
43 31 49 8 10 -40 6 -91 -14 -147 -21 -59 -25 -84 -11 -61 7 11 10 9 16 -9 5
-15 2 -25 -6 -31 -11 -7 -11 -9 -1 -9 19 0 25 25 13 49 -10 18 -7 22 19 36 16
8 30 19 30 23 0 13 -29 48 -30 36 0 -5 6 -16 12 -22 10 -10 10 -15 -2 -22 -8
-5 -19 -10 -24 -10 -15 0 5 54 30 81 28 29 30 42 8 60 -10 8 -13 21 -9 38 6
25 6 25 -9 6 -13 -17 -15 -18 -16 -3 0 9 12 23 28 30 26 13 27 12 36 -17 4
-16 6 -64 3 -105z m-777 110 c0 -13 7 -20 20 -20 27 0 25 -6 -7 -36 l-28 -24
29 -24 c18 -15 24 -26 17 -30 -6 -4 -16 -17 -22 -29 l-10 -22 19 22 c11 12 22
20 24 17 3 -3 5 3 5 13 0 10 1 38 2 63 l1 45 58 0 57 0 -47 -50 c-27 -27 -51
-60 -54 -71 -3 -12 -16 -26 -30 -33 -13 -6 -24 -17 -24 -26 0 -30 -18 -14 -24
23 -10 60 -7 202 4 202 6 0 10 -9 10 -20z m-372 -60 c-1 -16 -5 -30 -11 -30
-5 0 -4 -6 3 -14 10 -13 8 -13 -14 -3 -14 7 -20 14 -15 16 7 2 6 7 -2 12 -11
7 -9 13 11 29 14 11 26 20 27 20 1 0 1 -13 1 -30z m1516 -13 c-3 -8 -1 -18 5
-22 10 -5 15 7 12 28 -2 13 17 8 22 -6 3 -8 -9 -25 -26 -39 l-32 -25 -1 53
c-2 45 0 51 12 39 8 -7 11 -20 8 -28z m-1104 -7 c0 -27 -2 -29 -20 -18 -18 11
-18 14 -3 30 21 24 23 23 23 -12z m-150 -2 c0 -12 -3 -18 -7 -14 -11 10 -12
36 -2 36 5 0 9 -10 9 -22z m853 9 c3 -7 -1 -21 -9 -32 -13 -17 -14 -17 -14 13
0 32 14 43 23 19z m-843 -73 c0 -16 -16 -19 -25 -4 -8 13 4 32 16 25 5 -4 9
-13 9 -21z m980 -10 c0 -16 -16 -19 -25 -4 -8 13 4 32 16 25 5 -4 9 -13 9 -21z
m-376 -62 c3 -5 -1 -9 -9 -9 -8 0 -12 4 -9 9 3 4 7 8 9 8 2 0 6 -4 9 -8z
m-869 -33 c-4 -23 -1 -35 12 -45 25 -19 8 -17 -22 2 -23 15 -23 16 -7 45 21
37 24 36 17 -2z m1502 -29 c-3 -11 -2 -21 2 -23 3 -2 1 -2 -6 -1 -7 2 -15 -1
-18 -6 -12 -19 -24 -10 -18 13 3 12 6 30 6 39 1 13 5 14 20 6 12 -6 17 -17 14
-28z m-1206 15 c-1 -15 -24 -12 -29 3 -3 9 2 13 12 10 10 -1 17 -7 17 -13z
m619 -55 c25 -17 57 -35 73 -41 15 -6 27 -14 27 -18 0 -3 -23 -21 -50 -39 -85
-55 -195 -80 -286 -63 -31 6 -59 13 -62 15 -8 8 40 70 111 143 l70 72 36 -20
c20 -11 56 -33 81 -49z m293 46 c6 -15 -1 -26 -15 -26 -4 0 -8 9 -8 20 0 23
15 27 23 6z m-63 -110 c0 -16 -18 -31 -27 -22 -8 8 5 36 17 36 5 0 10 -6 10
-14z m-1069 -80 c-26 -25 -35 -17 -21 19 9 23 13 25 26 14 13 -11 13 -15 -5
-33z m1019 34 c0 -5 -5 -10 -11 -10 -5 0 -7 5 -4 10 3 6 8 10 11 10 2 0 4 -4
4 -10z m325 -10 c-4 -6 -1 -18 7 -27 11 -14 11 -16 -4 -10 -12 4 -15 2 -12 -7
3 -8 0 -17 -7 -22 -8 -5 -10 -3 -4 5 4 7 -5 5 -21 -5 -26 -17 -28 -17 -15 -1
7 9 10 17 5 17 -4 0 1 7 12 15 10 8 15 15 10 15 -11 0 14 30 26 30 5 0 6 -5 3
-10z m-1212 -28 c-3 -13 -23 -23 -71 -34 -37 -9 -69 -14 -71 -12 -12 11 30 35
84 48 33 8 61 15 62 15 0 1 -1 -7 -4 -17z m847 -1 c0 -5 -7 -14 -15 -21 -12
-10 -15 -10 -15 2 0 8 3 18 7 21 9 10 23 9 23 -2z m-490 -72 c0 -5 -7 -9 -15
-9 -15 0 -20 12 -9 23 8 8 24 -1 24 -14z m374 -4 c-6 -16 -34 -21 -34 -7 0 13
11 22 26 22 8 0 11 -6 8 -15z m-839 -32 c-22 -9 -51 -24 -65 -33 -14 -9 -43
-20 -64 -23 -36 -6 -38 -5 -24 9 17 18 141 62 173 63 11 0 3 -7 -20 -16z
m1200 -45 c-5 -28 -11 -34 -28 -33 -28 2 -26 17 2 31 12 6 22 14 22 18 -2 19
0 29 5 24 3 -3 2 -21 -1 -40z m-1288 -34 c2 -7 -7 -14 -21 -18 -14 -3 -27 -14
-30 -24 -4 -11 -27 -23 -68 -34 -66 -17 -92 -16 -42 2 46 17 112 50 84 44 -14
-4 -32 -9 -40 -12 -13 -4 -13 -3 0 11 38 40 108 58 117 31z m327 -79 c-3 -7
-1 -16 5 -20 6 -3 9 0 5 8 -3 8 -1 18 4 21 6 3 13 -1 16 -10 3 -8 10 -13 15
-9 5 3 13 0 17 -7 4 -7 4 -10 0 -6 -4 3 -22 0 -40 -7 -25 -10 -33 -11 -34 -2
0 7 -3 24 -5 40 -3 21 -2 25 9 16 7 -6 11 -16 8 -24z m826 14 c0 -6 -9 -13
-21 -16 -16 -4 -18 -8 -7 -14 11 -8 11 -11 -1 -18 -18 -12 -44 -7 -49 9 -3 9
1 11 12 7 9 -4 15 -2 13 6 -1 6 8 13 21 15 12 2 20 8 17 13 -4 5 -1 9 4 9 6 0
11 -5 11 -11z m-1253 -34 c-28 -29 -74 -45 -126 -45 -47 0 -33 10 57 42 96 34
101 34 69 3z"/>
<path d="M930 1004 c0 -19 31 -74 42 -74 5 0 0 17 -11 39 -11 21 -17 41 -14
45 4 3 1 6 -5 6 -7 0 -12 -7 -12 -16z"/>
<path d="M743 985 c0 -8 4 -12 9 -9 5 3 6 10 3 15 -9 13 -12 11 -12 -6z"/>
<path d="M900 935 c13 -14 28 -25 33 -25 6 0 0 11 -13 25 -13 14 -28 25 -33
25 -6 0 0 -11 13 -25z"/>
<path d="M1150 906 c0 -2 8 -10 18 -17 15 -13 16 -12 3 4 -13 16 -21 21 -21
13z"/>
<path d="M443 309 c11 -7 23 -7 35 0 14 9 11 10 -18 10 -29 0 -32 -1 -17 -10z"/>
<path d="M385 211 c-3 -5 -2 -12 3 -15 5 -3 9 1 9 9 0 17 -3 19 -12 6z"/>
<path d="M920 1360 c-21 -7 -21 -8 -5 -9 11 0 27 4 35 9 18 11 5 11 -30 0z"/>
<path d="M1073 1353 c9 -2 23 -2 30 0 6 3 -1 5 -18 5 -16 0 -22 -2 -12 -5z"/>
<path d="M1158 1314 c6 -32 80 -69 118 -60 19 5 24 3 24 -13 0 -11 9 -25 20
-31 18 -10 20 -8 20 18 0 43 -38 66 -86 53 -34 -9 -36 -8 -56 25 -24 41 -47
46 -40 8z"/>
<path d="M615 1140 c-3 -6 1 -7 9 -4 18 7 21 14 7 14 -6 0 -13 -4 -16 -10z"/>
<path d="M1023 1114 c9 -11 14 -24 10 -27 -3 -4 7 -7 23 -6 16 0 22 3 14 6 -8
3 -26 15 -40 27 -24 21 -24 21 -7 0z"/>
<path d="M1064 1115 c-21 -16 -8 -20 16 -5 9 5 19 5 27 -2 10 -8 12 -7 7 6 -8
20 -24 20 -50 1z"/>
<path d="M1726 553 c-6 -14 -5 -15 5 -6 7 7 10 15 7 18 -3 3 -9 -2 -12 -12z"/>
<path d="M1145 464 c-22 -13 -53 -24 -68 -24 -16 0 -26 -4 -22 -10 3 -6 17 -7
31 -4 26 7 32 -7 11 -24 -9 -8 -19 -5 -37 8 -36 28 -93 25 -138 -5 -20 -14
-33 -25 -29 -25 4 0 19 7 33 16 24 16 26 16 45 -5 24 -26 24 -26 48 0 18 20
21 20 42 5 31 -21 32 -21 52 14 16 26 20 28 43 18 28 -13 40 -5 49 35 9 34 -5
34 -60 1z m49 -6 c-9 -30 -8 -30 -35 -20 l-23 9 29 16 c38 21 38 21 29 -5z
m-164 -41 c0 -2 -8 -11 -18 -21 -18 -15 -20 -15 -37 4 -18 20 -18 20 18 20 21
0 37 -2 37 -3z"/>
<path d="M319 383 c-13 -16 -12 -17 4 -4 16 13 21 21 13 21 -2 0 -10 -8 -17
-17z"/>
<path d="M1614 1509 c-3 -6 -2 -15 3 -20 5 -5 9 -1 9 11 0 23 -2 24 -12 9z"/>
<path d="M165 1011 c-3 -5 -2 -12 3 -15 5 -3 9 1 9 9 0 17 -3 19 -12 6z"/>
<path d="M1635 991 c-3 -5 -2 -12 3 -15 5 -3 9 1 9 9 0 17 -3 19 -12 6z"/>
<path d="M1592 665 c0 -16 2 -22 5 -12 2 9 2 23 0 30 -3 6 -5 -1 -5 -18z"/>
</g>
</svg>
